<?xml version="1.0" encoding="UTF-8"?>
<svg id="_레이어_2" data-name="레이어 2" xmlns="http://www.w3.org/2000/svg" viewBox="0 0 350 128">
  <defs>
    <style>
      .cls-1 {
        fill: #b40000;
      }

      .cls-2 {
        fill: none;
      }
    </style>
  </defs>
  <g id="_레이어_1-2" data-name="레이어 1">
    <g>
      <rect class="cls-2" width="350" height="128"/>
      <g>
        <polygon class="cls-1" points="136.91 56.04 139.49 53.46 136.91 53.46 130.37 53.46 127.79 53.46 130.37 56.04 130.37 79.68 127.79 82.26 130.37 82.26 136.91 82.26 139.49 82.26 136.91 79.68 136.91 56.04"/>
        <path class="cls-1" d="M150.56,74.74l-5.66-9.6h0l11.68-11.68h-10.19l3.35,3.35-10.85,10.85,6.01,9.72c3.41,4.87,8.97,5.2,10.44,5.2s3.19-.34,3.19-.34c-2.85,0-7.97-7.51-7.97-7.51Z"/>
        <polygon class="cls-1" points="205.1 80.07 222.23 53.48 219.82 53.48 202.52 53.48 198.47 52.63 198.47 53.48 198.47 55.6 198.47 61.59 202.52 55.6 213.35 55.6 196.22 82.19 198.47 82.19 203.74 82.19 214.26 82.19 222.24 82.19 222.24 80.07 222.24 74.09 218.19 80.07 205.1 80.07"/>
        <path class="cls-1" d="M192.82,53.02c-3.9-4.44-3.18-11.27-3.18-11.27,0,0-.82,2.52-2.52,2.52-1.86,0-2.86-7.02-2.86-7.02,0,0-.44,3.37-2.55,3.37-2.61,0-5.45-8.22-5.45-8.22,0,0-2.83,8.22-5.45,8.22-2.11,0-2.55-3.37-2.55-3.37,0,0-1.01,7.02-2.86,7.02-1.7,0-2.52-2.52-2.52-2.52,0,0,.72,6.83-3.18,11.27,0,0,.91,5.86-2.68,9.19,0,0,2.2,1.04,2.84,12.34,0,0,.26-.28,.53-.28,1.09,0,3.55,6.82,3.55,6.82,0,0,.17-1.76,.86-1.76,.94,0,2.92,4.6,2.92,4.6,.44-4.22,4.6,1.55,4.6,1.55,2.06-1.34,3.95-1.18,3.95-1.18,0,0,1.89-.17,3.95,1.18,0,0,4.16-5.77,4.6-1.55,0,0,1.97-4.6,2.92-4.6,.69,0,.86,1.76,.86,1.76,0,0,2.46-6.82,3.55-6.82,.27,0,.53,.28,.53,.28,.63-11.3,2.84-12.34,2.84-12.34-3.59-3.34-2.68-9.19-2.68-9.19Zm-7.59,19.77s-.44-1.01-.44-1.67c0,0-2.08,8.18-2.93,8.18-.28,0-.58-1.95-.58-1.95,0,0-1.68,4.66-3.06,4.66s-1.96-4.69-1.96-4.69c0,0-.58,4.69-1.96,4.69s-3.06-4.66-3.06-4.66c0,0-.29,1.95-.58,1.95-.85,0-2.93-8.18-2.93-8.18,0,.66-.44,1.67-.44,1.67,0,0-1.35-5.29-1.35-11.24s1.73-5.29,1.73-5.29c.47-7.02,2.8-6.11,2.8-6.11,.38-1.54,1.29-4.03,3.15-4.03s2.64,.98,2.64,.98c0,0,.79-.98,2.64-.98s2.77,2.49,3.15,4.03c0,0,2.33-.91,2.8,6.11,0,0,1.73-.66,1.73,5.29s-1.35,11.24-1.35,11.24Z"/>
        <g>
          <path class="cls-1" d="M132.81,93.65v1.67h-5.05l.75-.56v-5.41l-.75-.56h4.77v1.67l-.91-1.2h-2.18v2.47h1.67l.64-.84v2.15l-.64-.84h-1.67v2.66h2.46l.91-1.2Z"/>
          <path class="cls-1" d="M140.75,89.35v6.25h-.06l-4.85-5.37v4.53l1.12,.56h-2.48l.75-.56v-5.41l-.75-.56h1.29l4.37,4.85v-4.29l-1.12-.56h2.48l-.75,.56Z"/>
          <path class="cls-1" d="M148.87,88.6v1.86l-.91-1.2h-1.52v5.51l.75,.56h-2.42l.74-.55v-5.52h-1.52l-.91,1.2v-1.86l.82,.19h4.15l.82-.19Z"/>
          <path class="cls-1" d="M155.54,93.65v1.67h-5.05l.75-.56v-5.41l-.75-.56h4.77v1.67l-.91-1.2h-2.18v2.47h1.67l.64-.84v2.15l-.64-.84h-1.67v2.66h2.46l.91-1.2Z"/>
          <path class="cls-1" d="M160.7,92.13c.23,.35,.45,.7,.67,1.02,.22,.33,.44,.63,.66,.9,.23,.27,.46,.52,.71,.73,.24,.21,.51,.39,.79,.54v.05c-.49,.05-.9,.01-1.23-.11-.33-.12-.64-.33-.93-.63-.29-.29-.58-.67-.88-1.13-.3-.46-.66-1-1.08-1.63,.39-.02,.7-.07,.95-.16,.25-.09,.44-.19,.59-.32,.15-.13,.25-.27,.3-.42,.06-.16,.08-.32,.08-.49,0-.39-.13-.69-.39-.91-.26-.21-.62-.32-1.09-.32h-.95v5.51l.75,.56h-2.43l.75-.56v-5.41l-.75-.56h2.73c.35,0,.67,.03,.96,.09,.29,.06,.55,.16,.76,.28,.21,.13,.38,.29,.5,.49,.12,.2,.18,.44,.18,.71,0,.45-.15,.82-.46,1.12-.31,.3-.71,.51-1.21,.64Z"/>
          <path class="cls-1" d="M170.06,88.6v1.86l-.91-1.2h-1.52v5.51l.75,.56h-2.42l.74-.55v-5.52h-1.52l-.91,1.2v-1.86l.82,.19h4.15l.82-.19Z"/>
          <path class="cls-1" d="M177.15,95.32h-2.55l.75-.56-.79-1.91h-2.14l-.8,1.91,1.11,.56h-1.95l2.92-6.81h.06l2.7,6.29,.7,.52Zm-2.79-2.94l-.87-2.11-.88,2.11h1.75Z"/>
          <path class="cls-1" d="M180.3,94.76l.75,.56h-2.43l.75-.56v-5.41l-.75-.56h2.43l-.75,.56v5.41Z"/>
          <path class="cls-1" d="M188.96,89.35v6.25h-.06l-4.85-5.37v4.53l1.12,.56h-2.48l.75-.56v-5.41l-.75-.56h1.29l4.37,4.85v-4.29l-1.12-.56h2.48l-.75,.56Z"/>
          <path class="cls-1" d="M199.34,95.32h-2.43l.75-.56v-4.53l-2.5,3.78-2.51-3.59v4.34l1.12,.56h-2.48l.75-.56v-5.41l-.75-.56h1.29l2.77,3.97,2.59-3.97h1.38l-.74,.55v5.42l.75,.56Z"/>
          <path class="cls-1" d="M206.03,93.65v1.67h-5.05l.75-.56v-5.41l-.75-.56h4.77v1.67l-.91-1.2h-2.18v2.47h1.67l.64-.84v2.15l-.64-.84h-1.67v2.66h2.46l.91-1.2Z"/>
          <path class="cls-1" d="M213.98,89.35v6.25h-.06l-4.85-5.37v4.53l1.12,.56h-2.48l.75-.56v-5.41l-.75-.56h1.29l4.37,4.85v-4.29l-1.12-.56h2.48l-.75,.56Z"/>
          <path class="cls-1" d="M222.1,88.6v1.86l-.91-1.2h-1.52v5.51l.75,.56h-2.42l.74-.55v-5.52h-1.52l-.91,1.2v-1.86l.82,.19h4.15l.82-.19Z"/>
        </g>
      </g>
    </g>
  </g>
</svg>