<?xml version="1.0" encoding="UTF-8"?>
<svg id="_레이어_2" data-name="레이어 2" xmlns="http://www.w3.org/2000/svg" viewBox="0 0 350 128">
  <defs>
    <style>
      .cls-1 {
        fill: none;
      }

      .cls-2 {
        fill: #f50000;
      }

      .cls-3 {
        fill: #3c3c3c;
      }
    </style>
  </defs>
  <g id="_레이어_1-2" data-name="레이어 1">
    <g>
      <rect class="cls-1" width="350" height="128"/>
      <g>
        <path class="cls-2" d="M98.95,82.63c.65,.36,1.45,.21,1.93-.36l13.12-15.71-3.01,10.26c-.2,.69,.1,1.43,.73,1.78l7.26,4.04c.65,.36,1.45,.21,1.93-.36l13.12-15.71-3.01,10.26c-.2,.69,.1,1.43,.73,1.78l7.35,4.08c.23,.13,.49,.19,.75,.19,.33,0,.66-.11,.94-.32l10.45-8.06c.19-.15,.3-.38,.28-.62-.02-.24-.16-.46-.37-.58l-6.45-3.59,5.43-18.52c.2-.69-.1-1.43-.73-1.78l-7.26-4.04c-.65-.36-1.45-.21-1.93,.36l-13.12,15.71,3.01-10.26c.2-.69-.1-1.43-.73-1.78l-7.26-4.04c-.65-.36-1.45-.21-1.93,.36l-13.12,15.71,3.01-10.26c.2-.69-.1-1.43-.73-1.78l-7.35-4.08c-.54-.3-1.2-.25-1.69,.13l-10.45,8.06c-.19,.15-.3,.38-.28,.62s.16,.46,.37,.58l6.45,3.59-5.43,18.51c-.2,.69,.1,1.43,.73,1.78l7.26,4.04Z"/>
        <g>
          <path class="cls-3" d="M165.96,74.29h-2.44v-21.74l2.44-.55v22.29Zm7.06-15.75l1.92,1.42-5.03,6.28,5.81,6.95-1.92,1.51-6.77-8.34,5.99-7.82Z"/>
          <path class="cls-3" d="M177.06,70.16c0-1.57,.51-2.75,1.53-3.55,1.02-.79,2.51-1.19,4.49-1.19h3.05v-1.25c0-1.22-.26-2.09-.79-2.6-.52-.51-1.3-.77-2.32-.77-.72,0-1.45,.1-2.21,.29-.76,.19-1.44,.44-2.06,.73l-.73-1.71c.77-.45,1.6-.79,2.49-1.03,.88-.24,1.74-.36,2.57-.36,1.82,0,3.18,.45,4.07,1.34,.89,.89,1.34,2.31,1.34,4.24v10h-1.8l-.29-1.69c-.76,.62-1.58,1.09-2.49,1.42-.9,.33-1.74,.49-2.51,.49-1.36,0-2.42-.38-3.18-1.15s-1.15-1.84-1.15-3.21m4.77,2.38c.35,0,.72-.04,1.12-.13,.4-.09,.79-.21,1.18-.36,.39-.15,.76-.34,1.1-.55,.35-.21,.65-.45,.9-.7v-3.66h-2.73c-1.4,0-2.41,.24-3.05,.71-.64,.48-.96,1.21-.96,2.19,0,.81,.21,1.43,.63,1.86,.42,.43,1.02,.64,1.82,.64"/>
          <path class="cls-3" d="M195.16,74.29h-2.44v-21.74l2.44-.55v22.29Zm7.06-15.75l1.92,1.42-5.03,6.28,5.81,6.95-1.92,1.51-6.77-8.34,5.99-7.82Z"/>
          <path class="cls-3" d="M206.26,70.16c0-1.57,.51-2.75,1.53-3.55,1.02-.79,2.51-1.19,4.49-1.19h3.05v-1.25c0-1.22-.26-2.09-.79-2.6-.52-.51-1.3-.77-2.33-.77-.72,0-1.45,.1-2.21,.29-.76,.19-1.44,.44-2.06,.73l-.73-1.71c.77-.45,1.6-.79,2.49-1.03,.88-.24,1.74-.36,2.57-.36,1.82,0,3.18,.45,4.07,1.34,.89,.89,1.34,2.31,1.34,4.24v10h-1.8l-.29-1.69c-.76,.62-1.58,1.09-2.49,1.42-.9,.33-1.74,.49-2.51,.49-1.36,0-2.42-.38-3.18-1.15s-1.15-1.84-1.15-3.21m4.77,2.38c.35,0,.72-.04,1.12-.13,.4-.09,.79-.21,1.18-.36,.39-.15,.76-.34,1.1-.55,.35-.21,.65-.45,.9-.7v-3.66h-2.73c-1.39,0-2.41,.24-3.05,.71-.64,.48-.96,1.21-.96,2.19,0,.81,.21,1.43,.63,1.86,.42,.43,1.02,.64,1.82,.64"/>
          <path class="cls-3" d="M227.98,58.71c2.13,0,3.8,.68,5,2.05,1.2,1.37,1.8,3.34,1.8,5.92s-.6,4.52-1.79,5.87c-1.19,1.36-2.86,2.04-5.01,2.04s-3.8-.68-5-2.04c-1.2-1.36-1.8-3.31-1.8-5.87s.61-4.55,1.82-5.92c1.21-1.37,2.87-2.05,4.99-2.05m0,2.01c-1.36,0-2.41,.51-3.15,1.53-.75,1.02-1.12,2.5-1.12,4.43s.37,3.41,1.12,4.4c.75,1,1.8,1.5,3.15,1.5s2.41-.5,3.15-1.5c.75-1,1.12-2.47,1.12-4.4s-.37-3.42-1.12-4.43c-.75-1.02-1.8-1.53-3.15-1.53"/>
          <polygon class="cls-3" points="247.11 74.29 242.89 58.62 242.02 74.29 237.72 74.29 239.93 53.71 244.84 53.71 249.05 69.38 253.27 53.71 258.3 53.71 260.42 74.29 256.09 74.29 255.19 58.68 250.8 74.29 247.11 74.29"/>
        </g>
      </g>
    </g>
  </g>
</svg>