<?xml version="1.0" encoding="UTF-8"?>
<svg id="_레이어_2" data-name="레이어 2" xmlns="http://www.w3.org/2000/svg" viewBox="0 0 350 128">
  <defs>
    <style>
      .cls-1 {
        fill: #b41423;
      }

      .cls-2 {
        fill: none;
      }
    </style>
  </defs>
  <g id="_레이어_1-2" data-name="레이어 1">
    <g>
      <rect class="cls-2" width="350" height="128"/>
      <g>
        <polygon class="cls-1" points="180.58 46.12 168.59 53.05 168.59 66.89 180.58 73.81 192.57 66.89 192.57 53.05 180.58 46.12"/>
        <g>
          <path d="M196.57,81.27v-21.84h3.19s5.24,15.68,5.24,15.68l.56,1.89,.63,2.63,.81-3.3c.08-.34,.15-.6,.21-.79,.06-.19,.1-.33,.13-.42l5.24-15.68h3.19v21.84h-1.85v-17.95l.1-2.64-6.8,20.58h-2.19l-6.78-20.67,.1,2.67,.04,1.6v16.41h-1.82Z"/>
          <path d="M219.51,59.43h1.97v14.32c0,1.35,.06,2.34,.17,2.97,.11,.63,.3,1.13,.56,1.52,.2,.29,.42,.54,.67,.76,.25,.22,.54,.41,.87,.58,.66,.31,1.38,.46,2.16,.46s1.52-.15,2.15-.46c.63-.31,1.15-.75,1.55-1.33,.26-.37,.44-.88,.56-1.54,.05-.31,.09-.71,.12-1.21,.03-.5,.04-1.08,.04-1.74v-14.32h1.94v14.32c0,2.85-.49,4.88-1.47,6.09-.98,1.2-2.61,1.81-4.89,1.81s-3.89-.61-4.9-1.82c-.5-.61-.88-1.41-1.13-2.41-.25-.99-.37-2.21-.37-3.67v-14.32Z"/>
          <path d="M235.75,75.11h2.03v.73c0,1.36,.33,2.39,.99,3.09,.66,.7,1.64,1.04,2.95,1.04,1.19,0,2.15-.36,2.88-1.07,.73-.72,1.09-1.66,1.09-2.84,0-.84-.23-1.58-.7-2.22-.46-.64-1.64-1.57-3.54-2.78l-.76-.49c-1.46-.92-2.48-1.63-3.07-2.15-.53-.47-.95-1.07-1.24-1.78-.29-.71-.44-1.49-.44-2.32,0-1.6,.53-2.87,1.6-3.82,1.07-.95,2.52-1.42,4.37-1.42s3.22,.48,4.19,1.43c.97,.95,1.45,2.33,1.45,4.12v.44h-2v-.21c0-1.38-.31-2.41-.93-3.1-.62-.68-1.56-1.02-2.84-1.02-1.16,0-2.1,.31-2.8,.94-.7,.63-1.05,1.46-1.05,2.51,0,.91,.28,1.72,.85,2.44,.57,.72,1.97,1.77,4.21,3.18,1.94,1.19,3.21,2.2,3.8,3.03,.59,.82,.88,1.81,.88,2.97,0,1.84-.54,3.27-1.61,4.29-1.07,1.03-2.57,1.54-4.49,1.54s-3.37-.49-4.36-1.47c-.99-.98-1.49-2.42-1.49-4.3v-.76Z"/>
          <path d="M251.3,81.27v-21.84h1.97v21.84h-1.97Z"/>
          <path d="M267.05,74.9h2.09v.09c0,2.1-.52,3.74-1.57,4.9-1.05,1.16-2.54,1.75-4.47,1.75-1.1,0-2.06-.21-2.88-.64-.82-.43-1.52-1.06-2.08-1.9-.41-.63-.72-1.46-.9-2.48-.19-1.02-.28-2.81-.28-5.35v-.84c0-2.23,.05-3.85,.14-4.86,.09-1.01,.26-1.89,.5-2.64,.36-1.18,1.03-2.12,2.04-2.8,1-.68,2.2-1.02,3.61-1.02,2.01,0,3.47,.48,4.37,1.45,.45,.47,.79,1.09,1.02,1.86,.23,.77,.34,1.7,.34,2.79v.12h-2.03c0-1.59-.29-2.76-.87-3.5-.58-.75-1.5-1.12-2.78-1.12-1.57,0-2.68,.61-3.32,1.84-.64,1.23-.96,3.48-.96,6.75,0,.62,.01,1.43,.04,2.41,.03,.99,.04,1.66,.04,2.03,0,.59,.02,1.09,.07,1.48,.05,.4,.13,.87,.24,1.42,.2,1.04,.62,1.84,1.28,2.41,.66,.57,1.47,.86,2.44,.86,1.2,0,2.16-.4,2.87-1.21,.71-.8,1.06-1.91,1.06-3.31v-.49Z"/>
        </g>
        <path d="M93.43,66.11h-5.3v-1.63c0-.76-.07-1.24-.2-1.45-.14-.21-.36-.31-.68-.31-.34,0-.6,.14-.78,.42-.18,.28-.26,.71-.26,1.28,0,.73,.1,1.28,.3,1.66,.19,.37,.73,.82,1.61,1.34,2.54,1.51,4.14,2.75,4.8,3.71,.66,.97,.99,2.53,.99,4.68,0,1.56-.18,2.72-.55,3.46-.37,.74-1.07,1.36-2.12,1.86-1.05,.5-2.27,.75-3.66,.75-1.53,0-2.83-.29-3.91-.87-1.08-.58-1.79-1.32-2.12-2.21-.33-.89-.5-2.16-.5-3.81v-1.44h5.3v2.67c0,.82,.07,1.35,.22,1.59,.15,.23,.41,.35,.79,.35s.66-.15,.85-.45c.19-.3,.28-.74,.28-1.33,0-1.29-.18-2.14-.53-2.54-.36-.4-1.25-1.06-2.67-1.99-1.42-.94-2.36-1.62-2.82-2.05-.46-.42-.84-1.01-1.15-1.76-.3-.75-.45-1.71-.45-2.87,0-1.68,.21-2.91,.64-3.69,.43-.78,1.12-1.38,2.08-1.82,.96-.44,2.12-.66,3.47-.66,1.48,0,2.75,.24,3.79,.72,1.04,.48,1.74,1.08,2.07,1.81,.34,.73,.51,1.96,.51,3.71v.87Z"/>
        <path d="M108.57,72.32c0,2.21-.05,3.77-.16,4.68-.1,.92-.43,1.76-.98,2.52-.55,.76-1.29,1.34-2.22,1.75-.93,.41-2.02,.61-3.25,.61s-2.23-.19-3.17-.58c-.94-.38-1.69-.96-2.26-1.73-.57-.77-.91-1.6-1.02-2.51-.11-.9-.16-2.49-.16-4.75v-3.76c0-2.21,.05-3.77,.16-4.68,.1-.92,.43-1.76,.98-2.52,.55-.76,1.29-1.34,2.22-1.75,.93-.41,2.02-.61,3.25-.61s2.23,.19,3.17,.58c.94,.38,1.69,.96,2.26,1.73,.57,.77,.91,1.6,1.02,2.51,.11,.9,.16,2.49,.16,4.75v3.76Zm-5.71-7.21c0-1.02-.06-1.67-.17-1.96-.11-.28-.35-.43-.7-.43-.3,0-.53,.12-.68,.35-.16,.23-.24,.91-.24,2.04v10.25c0,1.27,.05,2.06,.16,2.36,.1,.3,.35,.45,.73,.45s.64-.17,.75-.52c.11-.34,.16-1.16,.16-2.45v-10.09Z"/>
        <path d="M123.47,59.47v14.67c0,1.66-.05,2.83-.16,3.5-.11,.67-.43,1.36-.96,2.07-.53,.71-1.24,1.25-2.11,1.61-.87,.37-1.9,.55-3.08,.55-1.31,0-2.47-.22-3.47-.65-1-.43-1.75-1-2.25-1.69-.5-.7-.79-1.43-.88-2.2-.09-.77-.14-2.4-.14-4.87v-12.99h5.71v16.46c0,.96,.05,1.57,.16,1.84,.1,.27,.31,.4,.63,.4,.36,0,.59-.15,.7-.44,.1-.29,.16-.99,.16-2.08v-16.18h5.71Z"/>
        <path d="M125.61,59.47h4.04c2.69,0,4.52,.1,5.47,.31,.95,.21,1.73,.74,2.33,1.59,.6,.85,.9,2.22,.9,4.09,0,1.71-.21,2.86-.64,3.44-.42,.59-1.26,.94-2.51,1.06,1.13,.28,1.89,.66,2.28,1.13,.39,.47,.63,.9,.73,1.29,.09,.39,.14,1.48,.14,3.25v5.79h-5.3v-7.29c0-1.17-.09-1.9-.28-2.18-.19-.28-.67-.42-1.46-.42v9.9h-5.71v-21.95Zm5.71,3.76v4.88c.64,0,1.09-.09,1.35-.26,.26-.18,.39-.75,.39-1.72v-1.21c0-.7-.12-1.15-.37-1.37-.25-.22-.7-.33-1.36-.33Z"/>
        <path d="M153.72,69.02h-5.71v-3.82c0-1.11-.06-1.8-.18-2.08-.12-.28-.39-.41-.81-.41-.47,0-.77,.17-.89,.5-.13,.33-.19,1.06-.19,2.17v10.2c0,1.07,.06,1.76,.19,2.09,.13,.33,.41,.49,.85,.49s.7-.16,.83-.49c.13-.33,.2-1.09,.2-2.3v-2.76h5.71v.86c0,2.27-.16,3.88-.48,4.83-.32,.95-1.03,1.78-2.13,2.5-1.1,.71-2.45,1.07-4.06,1.07s-3.05-.3-4.14-.91c-1.08-.61-1.8-1.44-2.16-2.52-.35-1.07-.53-2.68-.53-4.83v-6.41c0-1.58,.05-2.77,.16-3.56,.11-.79,.43-1.55,.97-2.28,.54-.73,1.28-1.31,2.24-1.73,.95-.42,2.05-.63,3.29-.63,1.68,0,3.07,.33,4.16,.97,1.09,.65,1.81,1.46,2.16,2.43,.34,.97,.52,2.48,.52,4.53v2.09Z"/>
        <path d="M155.73,59.47h9.52v4.39h-3.81v4.16h3.57v4.18h-3.57v4.83h4.19v4.39h-9.9v-21.95Z"/>
      </g>
    </g>
  </g>
</svg>