<?xml version="1.0" encoding="UTF-8"?>
<svg id="_레이어_2" data-name="레이어 2" xmlns="http://www.w3.org/2000/svg" viewBox="0 0 350 128">
  <defs>
    <style>
      .cls-1 {
        fill: none;
      }
    </style>
  </defs>
  <g id="_레이어_1-2" data-name="레이어 1">
    <g>
      <rect class="cls-1" width="350" height="128"/>
      <g>
        <polygon points="121.14 36.97 121.14 90.51 131.32 90.51 131.32 46.78 218.68 46.78 218.68 57.81 154.06 57.81 154.06 67.61 218.68 67.61 228.86 67.61 228.86 36.97 121.14 36.97"/>
        <path d="M144.24,49.81h-10v19.89h5.09v-5.44h4.91c3.99,0,7.22-3.23,7.22-7.22s-3.23-7.22-7.22-7.22Zm0,9.36h-4.91v-4.27h4.91c1.18,0,2.14,.96,2.14,2.14s-.96,2.14-2.14,2.14Z"/>
        <polygon points="163.65 72.38 158.94 72.38 158.52 73.52 152.26 90.51 157.82 90.51 161.29 81.06 164.77 90.51 170.33 90.51 164.07 73.52 163.65 72.38"/>
        <polygon points="168.58 76.9 173.19 76.9 173.19 90.51 178.28 90.51 178.28 76.9 182.89 76.9 182.89 72.38 168.58 72.38 168.58 76.9"/>
        <rect x="184.71" y="72.38" width="5.09" height="18.13"/>
        <polygon points="146.08 82.17 139.33 72.38 134.24 72.38 134.24 90.51 139.33 90.51 139.33 81.26 146.08 90.51 151.17 90.51 151.17 72.38 146.08 72.38 146.08 82.17"/>
        <polygon points="223.78 82.17 217.02 72.38 211.93 72.38 211.93 90.51 217.02 90.51 217.02 81.26 223.78 90.51 228.86 90.51 228.86 72.38 223.78 72.38 223.78 82.17"/>
        <path d="M200.86,71.86c-5.29,0-9.59,4.29-9.59,9.59s4.29,9.59,9.59,9.59,9.59-4.29,9.59-9.59-4.29-9.59-9.59-9.59Zm0,13.87c-2.37,0-4.28-1.92-4.28-4.28s1.92-4.28,4.28-4.28,4.28,1.92,4.28,4.28-1.92,4.28-4.28,4.28Z"/>
      </g>
    </g>
  </g>
</svg>