<?xml version="1.0" encoding="UTF-8"?>
<svg id="_레이어_2" data-name="레이어 2" xmlns="http://www.w3.org/2000/svg" viewBox="0 0 350 128">
  <defs>
    <style>
      .cls-1 {
        fill: #ee4136;
      }

      .cls-1, .cls-2, .cls-3 {
        fill-rule: evenodd;
      }

      .cls-4 {
        fill: none;
      }

      .cls-2 {
        fill: #f27021;
      }

      .cls-5 {
        fill: #fbae17;
      }
    </style>
  </defs>
  <g id="_레이어_1-2" data-name="레이어 1">
    <g>
      <rect class="cls-4" width="350" height="128"/>
      <g>
        <polygon class="cls-2" points="110.94 84.28 105.37 88.17 105.37 67.9 111.28 63.84 114.14 71.27 118.53 58.77 124.93 54.38 124.93 74.48 119.71 78.2 119.71 70.26 117.01 80.06 113.47 82.59 110.94 75.5 110.94 84.28"/>
        <polygon class="cls-1" points="91.01 58.26 91.01 67.06 93.52 59.95 96.87 62.49 99.38 72.13 99.38 64.35 104.24 67.9 104.24 87.52 98.21 83.29 94.02 71.12 91.34 78.39 85.82 74.5 85.82 54.54 91.01 58.26"/>
        <path class="cls-3" d="M146.27,78.31v-5.22h.37v1.07c.08-.33,.25-.61,.56-.84,.29-.23,.62-.34,.96-.34,.44,0,.79,.11,1.06,.37,.21,.19,.37,.44,.42,.75h.02c.29-.75,.81-1.11,1.54-1.11,.46,0,.83,.15,1.1,.42,.29,.33,.44,.77,.44,1.36v3.55h-.37v-3.57c0-.56-.15-.96-.48-1.21-.19-.13-.42-.21-.67-.21-.46,0-.83,.17-1.1,.48-.29,.35-.44,.83-.44,1.44v3.07h-.37v-3.57c0-.56-.13-.96-.44-1.19-.19-.15-.42-.23-.69-.23-.4,0-.73,.15-1.04,.46-.33,.35-.5,.84-.5,1.46v3.07h-.37Z"/>
        <path class="cls-3" d="M158.07,73.13v5.06h-.33v-1.08c-.13,.37-.34,.65-.67,.87-.3,.2-.65,.32-1.04,.32-.71,0-1.19-.26-1.45-.78-.15-.3-.22-.71-.22-1.26v-3.13h.35v3.2c0,1.1,.43,1.64,1.32,1.64,.52,0,.93-.19,1.25-.58,.3-.39,.46-.89,.46-1.53v-2.73h.33Z"/>
        <rect x="159.69" y="71.19" width=".48" height="7.11"/>
        <path class="cls-3" d="M163.57,73.11v.36h-1.12v3.57c0,.38,.1,.64,.3,.76,.14,.11,.4,.15,.8,.13v.34c-.46,.04-.8-.02-1.02-.17-.3-.17-.44-.51-.44-1.04v-3.58h-.94v-.36h.94v-1.59h.36v1.59h1.12Z"/>
        <path class="cls-3" d="M165.02,78.31h-.32v-5.13h.32v5.13Zm0-6.12h-.32v-.99h.32v.99Z"/>
        <path class="cls-3" d="M166.8,78.31v-5.22h.34v1.07c.08-.33,.27-.61,.55-.84s.59-.34,.96-.34c.42,0,.75,.11,1.01,.37,.23,.19,.36,.44,.42,.75h.01c.31-.75,.82-1.11,1.54-1.11,.44,0,.81,.15,1.06,.42,.28,.33,.42,.77,.42,1.36v3.55h-.34v-3.57c0-.56-.18-.96-.47-1.21-.19-.13-.42-.21-.67-.21-.46,0-.79,.17-1.06,.48-.3,.35-.43,.83-.43,1.44v3.07h-.35v-3.57c0-.56-.15-.96-.43-1.19-.19-.15-.42-.23-.69-.23-.39,0-.73,.15-1.01,.46-.34,.35-.51,.84-.51,1.46v3.07h-.34Z"/>
        <path class="cls-3" d="M174.92,75.36h3.6c0-.56-.18-1.03-.47-1.43-.35-.41-.77-.62-1.32-.62s-.94,.22-1.28,.66c-.31,.38-.48,.84-.53,1.39Zm3.96,.34h-3.96c-.01,.64,.13,1.16,.43,1.6,.34,.45,.79,.68,1.37,.68,.47,0,.86-.13,1.14-.39,.31-.26,.53-.64,.61-1.11h.36c-.09,.6-.32,1.05-.7,1.37-.36,.32-.84,.47-1.41,.47-.7,0-1.24-.24-1.63-.75-.36-.47-.54-1.09-.54-1.82s.18-1.39,.53-1.9c.39-.58,.94-.86,1.64-.86s1.28,.28,1.67,.81c.36,.51,.53,1.15,.48,1.92Z"/>
        <path class="cls-3" d="M182.08,77.97c.59,0,1.04-.22,1.37-.71,.28-.43,.44-.95,.44-1.58s-.16-1.17-.44-1.6c-.34-.48-.79-.72-1.37-.72-.62,0-1.08,.24-1.39,.71-.3,.41-.43,.95-.43,1.62,0,.63,.13,1.17,.44,1.6,.34,.46,.79,.69,1.37,.69Zm1.82,.22v-1.08c-.4,.8-1.02,1.19-1.87,1.19-.7,0-1.24-.26-1.63-.78-.32-.48-.5-1.1-.5-1.84,0-.8,.18-1.41,.54-1.89,.39-.5,.93-.76,1.64-.76,.4,0,.79,.11,1.12,.33,.35,.22,.58,.54,.7,.91v-3.08h.36v7h-.36Z"/>
        <path class="cls-3" d="M186.2,78.31h-.32v-5.13h.32v5.13Zm0-6.12h-.32v-.99h.32v.99Z"/>
        <path class="cls-3" d="M191.06,76.24v-.94c-.11,.13-.34,.22-.69,.28-.36,.04-.7,.08-1.04,.11-.89,.11-1.35,.51-1.35,1.18,0,.32,.12,.58,.34,.77,.22,.22,.55,.32,.94,.32,.69,0,1.19-.24,1.51-.75,.19-.32,.28-.64,.28-.98Zm.36-1.93v2.93c0,.21,.03,.34,.04,.41,.04,.15,.13,.21,.28,.21,.05,0,.16,0,.27-.02v.32c-.15,.02-.24,.04-.31,.04-.24,0-.42-.07-.51-.19-.07-.11-.13-.3-.13-.56v-.26h-.01c-.12,.32-.32,.6-.63,.79-.32,.22-.73,.34-1.16,.34-1.06,0-1.6-.47-1.6-1.43s.59-1.43,1.78-1.52c.78-.06,1.24-.15,1.4-.26,.16-.11,.23-.38,.23-.79,0-.21-.07-.39-.24-.58-.26-.28-.61-.41-1.09-.41-.43,0-.78,.11-1.05,.36-.24,.22-.39,.56-.42,1h-.36c.07-1.13,.67-1.69,1.86-1.69,1.12,0,1.67,.45,1.67,1.33Z"/>
        <path class="cls-3" d="M198.11,74.08c.4-.26,.67-.49,.82-.66,.28-.3,.42-.62,.42-.98,0-.26-.11-.47-.32-.64-.2-.17-.46-.26-.71-.26-.27,0-.53,.09-.73,.26-.23,.17-.32,.38-.32,.64,0,.28,.09,.58,.31,.89,.19,.26,.35,.51,.54,.75Zm1.6,2.74l-1.71-2.26c-.59,.38-.93,.64-1.06,.77-.34,.34-.51,.74-.51,1.17s.18,.81,.51,1.1c.31,.25,.69,.38,1.1,.38,.34,0,.66-.09,.94-.28,.22-.13,.4-.32,.55-.53,.12-.19,.19-.3,.18-.34Zm1.05,1.38l-.82-1.06c-.43,.79-1.06,1.17-1.9,1.17-.58,0-1.05-.15-1.41-.45-.38-.32-.57-.77-.57-1.36,0-.49,.19-.96,.59-1.36,.16-.17,.55-.47,1.16-.87-.35-.45-.55-.74-.61-.85-.22-.34-.31-.66-.31-1,0-.36,.15-.64,.44-.87,.28-.25,.61-.36,.97-.36s.7,.11,.97,.32c.28,.23,.43,.53,.43,.91,0,.45-.15,.83-.46,1.17-.09,.11-.42,.38-.93,.77l1.58,2.09c.15-.43,.23-.83,.23-1.19h.36c-.04,.53-.15,1.02-.34,1.49l1.08,1.43h-.47Z"/>
        <path class="cls-3" d="M205.48,75.36h3.6c-.03-.56-.18-1.03-.47-1.43-.35-.41-.79-.62-1.32-.62s-.94,.22-1.28,.66c-.31,.38-.48,.84-.53,1.39Zm3.96,.34h-3.96c-.01,.64,.13,1.16,.43,1.6,.34,.45,.79,.68,1.37,.68,.47,0,.84-.13,1.14-.39,.31-.26,.53-.64,.61-1.11h.36c-.09,.6-.32,1.05-.7,1.37-.36,.32-.84,.47-1.41,.47-.7,0-1.24-.24-1.63-.75-.36-.47-.54-1.09-.54-1.82s.18-1.39,.53-1.9c.39-.58,.93-.86,1.64-.86s1.28,.28,1.67,.81c.36,.51,.53,1.15,.48,1.92Z"/>
        <path class="cls-3" d="M210.61,78.31v-5.22h.36v1.13c.12-.38,.35-.69,.69-.92,.32-.21,.67-.33,1.08-.33,.77,0,1.27,.27,1.52,.81,.15,.31,.23,.75,.23,1.31v3.22h-.35v-3.28c0-1.13-.46-1.71-1.4-1.71-.54,0-.97,.19-1.29,.61-.31,.38-.47,.92-.47,1.55v2.82h-.36Z"/>
        <path class="cls-3" d="M217.88,73.11v.36h-1.02v3.57c0,.38,.08,.64,.27,.76,.13,.11,.38,.15,.75,.13v.34c-.43,.04-.75-.02-.96-.17-.28-.17-.42-.51-.42-1.04v-3.58h-.89v-.36h.89v-1.59h.35v1.59h1.02Z"/>
        <path class="cls-3" d="M219.07,75.36h3.73c-.03-.56-.19-1.03-.51-1.43-.34-.41-.79-.62-1.35-.62s-.98,.22-1.35,.66c-.3,.38-.48,.84-.53,1.39Zm4.11,.34h-4.11c-.01,.64,.12,1.16,.44,1.6,.35,.45,.82,.68,1.43,.68,.47,0,.86-.13,1.19-.39,.32-.26,.53-.64,.63-1.11h.38c-.09,.6-.34,1.05-.73,1.37-.38,.32-.86,.47-1.47,.47-.73,0-1.28-.24-1.68-.75-.39-.47-.57-1.09-.57-1.82s.18-1.39,.54-1.9c.4-.58,.97-.86,1.71-.86s1.33,.28,1.74,.81c.36,.51,.54,1.15,.5,1.92Z"/>
        <path class="cls-3" d="M224.71,73.01v1.19h.03c.09-.35,.32-.64,.67-.88,.36-.25,.75-.35,1.2-.33v.39h-.19c-.44,0-.84,.18-1.17,.53-.19,.21-.32,.41-.4,.62-.09,.21-.13,.51-.13,.9v2.88h-.36v-5.3h.36Z"/>
        <path class="cls-3" d="M229.2,73.11v.36h-.96v3.57c0,.38,.09,.64,.24,.76,.12,.11,.36,.15,.7,.13v.34c-.39,.04-.7-.02-.89-.17-.24-.17-.38-.51-.38-1.04v-3.58h-.82v-.36h.82v-1.59h.32v1.59h.96Z"/>
        <path class="cls-3" d="M233.59,76.24v-.94c-.11,.13-.34,.22-.7,.28-.35,.04-.69,.08-1.04,.11-.9,.11-1.33,.51-1.33,1.18,0,.32,.11,.58,.32,.77,.23,.22,.54,.32,.96,.32,.69,0,1.19-.24,1.51-.75,.19-.32,.28-.64,.28-.98Zm.36-1.93v2.93c0,.21,0,.34,.04,.41,.04,.15,.13,.21,.3,.21,.05,0,.12,0,.24-.02v.32c-.13,.02-.23,.04-.28,.04-.26,0-.43-.07-.53-.19-.09-.11-.13-.3-.13-.56v-.26h-.01c-.12,.32-.32,.6-.63,.79-.35,.22-.73,.34-1.17,.34-1.06,0-1.6-.47-1.6-1.43s.59-1.43,1.76-1.52c.78-.06,1.27-.15,1.41-.26,.18-.11,.24-.38,.24-.79,0-.21-.07-.39-.27-.58-.23-.28-.59-.41-1.06-.41-.44,0-.78,.11-1.05,.36-.27,.22-.4,.56-.44,1h-.35c.04-1.13,.67-1.69,1.85-1.69s1.7,.45,1.7,1.33Z"/>
        <path class="cls-3" d="M236.15,78.31h-.48v-5.13h.48v5.13Zm0-6.12h-.48v-.99h.48v.99Z"/>
        <path class="cls-3" d="M237.6,78.31v-5.22h.36v1.13c.12-.38,.35-.69,.69-.92,.32-.21,.7-.33,1.08-.33,.74,0,1.27,.27,1.54,.81,.13,.31,.22,.75,.22,1.31v3.22h-.35v-3.28c0-1.13-.46-1.71-1.4-1.71-.54,0-.97,.19-1.28,.61-.32,.38-.48,.92-.48,1.55v2.82h-.36Z"/>
        <path class="cls-3" d="M242.94,78.31v-5.22h.38v1.07c.08-.33,.27-.61,.57-.84,.3-.23,.63-.34,1.01-.34,.43,0,.79,.11,1.06,.37,.24,.19,.38,.44,.43,.75h.03c.31-.75,.82-1.11,1.59-1.11,.47,0,.85,.15,1.1,.42,.3,.33,.46,.77,.46,1.36v3.55h-.38v-3.57c0-.56-.16-.96-.47-1.21-.2-.13-.43-.21-.71-.21-.47,0-.85,.17-1.12,.48-.3,.35-.43,.83-.43,1.44v3.07h-.38v-3.57c0-.56-.16-.96-.47-1.19-.19-.15-.44-.23-.71-.23-.39,0-.75,.15-1.05,.46-.35,.35-.53,.84-.53,1.46v3.07h-.38Z"/>
        <path class="cls-3" d="M251.06,75.36h3.6c-.03-.56-.18-1.03-.47-1.43-.35-.41-.79-.62-1.32-.62s-.94,.22-1.28,.66c-.31,.38-.48,.84-.53,1.39Zm3.96,.34h-3.96c-.01,.64,.13,1.16,.43,1.6,.34,.45,.79,.68,1.37,.68,.47,0,.86-.13,1.14-.39,.31-.26,.53-.64,.61-1.11h.36c-.09,.6-.32,1.05-.7,1.37-.36,.32-.84,.47-1.41,.47-.7,0-1.24-.24-1.63-.75-.36-.47-.54-1.09-.54-1.82s.18-1.39,.53-1.9c.39-.58,.93-.86,1.64-.86s1.28,.28,1.67,.81c.36,.51,.53,1.15,.48,1.92Z"/>
        <path class="cls-3" d="M256.52,78.31v-5.22h.35v1.13c.12-.38,.34-.69,.66-.92,.31-.21,.65-.33,1.04-.33,.73,0,1.2,.27,1.47,.81,.12,.31,.2,.75,.2,1.31v3.22h-.34v-3.28c0-1.13-.44-1.71-1.33-1.71-.53,0-.93,.19-1.25,.61-.3,.38-.44,.92-.44,1.55v2.82h-.35Z"/>
        <path class="cls-3" d="M263.63,73.11v.36h-1.12v3.57c0,.38,.09,.64,.3,.76,.13,.11,.4,.15,.81,.13v.34c-.47,.04-.81-.02-1.02-.17-.31-.17-.44-.51-.44-1.04v-3.58h-.94v-.36h.94v-1.59h.36v1.59h1.12Z"/>
        <path class="cls-3" d="M164.15,64.2c-.02,1.18-.92,1.78-2.67,1.78h-2.81c-.65,0-1.23-.12-1.75-.37-.65-.31-1-.79-1-1.39v-3.63h5.56c1.75,.02,2.65,.6,2.67,1.76v1.85Zm-2.48-6.14h-5.75v-2.7h-2.67v9.71c-.02,1.16,.65,2.07,1.94,2.68,1,.46,2.12,.7,3.37,.7h3.12c3.39,0,5.14-1.14,5.14-3.44v-3.57c0-2.26-1.75-3.38-5.14-3.38Z"/>
        <path class="cls-3" d="M178.37,63.44v1.32c0,.77-.54,1.16-1.54,1.16h-5.39c-.38,0-.73-.08-1.02-.24-.39-.22-.58-.51-.58-.88v-.43c0-.39,.19-.69,.55-.88,.28-.16,.62-.24,1.01-.24h6.96v.2Zm-4.24-5.58h0Zm5.71,.65c-.78-.49-1.78-.73-2.98-.73h-2.82v2.52h2.82c1.09,0,1.51,.12,1.52,.35l-6.49-.02c-1.19,0-2.18,.24-3,.69-1.05,.59-1.6,1.47-1.59,2.63v1.26c-.01,1.08,.57,1.95,1.67,2.54,.88,.47,1.87,.71,2.98,.71h4.92c2.94,0,4.49-1.12,4.49-3.36v-3.87c0-1.2-.5-2.12-1.51-2.71Z"/>
        <path class="cls-3" d="M195.09,60.9c-.01-2.1-1.72-3.12-5.01-3.12h-3.35c-3.34,0-5.05,1.04-5.05,3.14v7.53h2.9v-6.55c0-1.21,1-1.79,2.88-1.81h1.89c1.86,.02,2.83,.6,2.83,1.79v6.57h2.92v-7.55Z"/>
        <path class="cls-3" d="M221.83,57.99l.04-.1v-.02l.05-.1h-2.99l-3.21,6.67-2.69-5.47c-.28-.6-.79-.91-1.47-.91s-1.19,.31-1.5,.91l-2.72,5.47-3.13-6.67h-2.99l.04,.1c1.23,2.76,2.18,4.83,2.83,6.22l1.12,2.42c.31,.66,.47,1,.47,1,.32,.62,.89,.93,1.59,.93,.74,0,1.28-.31,1.56-.87l2.72-5.51,2.67,5.47c.27,.58,.81,.89,1.52,.87,.73,.02,1.25-.29,1.54-.89,1.6-3.29,2.76-5.76,3.53-7.42l.79-1.66,.22-.44Z"/>
        <path class="cls-3" d="M231.56,64.09c0,.63-.3,1.11-.86,1.41-.42,.23-.96,.35-1.59,.35h-2.4c-.65,0-1.2-.12-1.66-.35-.59-.29-.92-.78-.92-1.41v-1.85c0-.62,.32-1.11,.92-1.42,.47-.27,1.02-.39,1.66-.39h2.4c1.6,0,2.45,.6,2.45,1.8v1.87Zm-1.93-6.48h-3.41c-1.27,0-2.37,.25-3.3,.76-1.2,.64-1.81,1.62-1.81,2.87v3.69c0,1.27,.61,2.21,1.81,2.81,.92,.47,2.02,.7,3.3,.7h3.41c1.29,0,2.36-.21,3.21-.68,1.13-.6,1.7-1.56,1.7-2.83v-3.73c0-2.38-1.67-3.59-4.9-3.59Z"/>
        <polygon class="cls-3" points="251.99 68.45 251.82 68.28 246.55 62.91 251.65 57.53 248.42 57.53 244.69 61.39 244.69 55.35 241.97 55.35 241.97 68.45 244.69 68.45 244.69 64.58 248.42 68.45 251.99 68.45"/>
        <path class="cls-3" d="M260.3,61.83h-4.8c-.48,0-.89-.29-.89-.66s.4-.66,.89-.66h3.89v-2.57h-2.69c-1.35,0-2.36,.14-3.06,.41-1.09,.44-1.66,1.28-1.66,2.48v.52c0,2.05,1.7,3.06,4.93,3.08h3.83c.54,0,.98,.33,.98,.74s-.44,.74-.98,.74h-8.72v2.55h8.02c2.88,0,4.39-1.06,4.39-3.17v-.44c0-1.99-1.43-3-4.14-3Z"/>
        <path class="cls-3" d="M239.79,57.94c-3.25,0-4.93,1.14-4.93,3.41v7.1h2.79v-6.7c.03-.81,.65-1.22,1.83-1.24h2.17v-2.57h-1.86Z"/>
        <path class="cls-3" d="M151.1,57.94c-3.17,0-4.82,1.14-4.82,3.41v7.1h2.72v-6.54c.02-.1,.02-.15,.02-.15,.02-.81,.63-1.22,1.78-1.24h2.11v-2.57h-1.8Z"/>
        <path class="cls-3" d="M142.96,64.53c0,.91-.88,1.26-2.85,1.31h-3.61c-1.99,0-2.9-.41-2.9-1.33v-9.15h-2.85v9.15c0,1.62,.69,2.84,2.06,3.42,.86,.35,2.2,.52,3.97,.52h2.94c1.7,0,3.02-.19,3.93-.58,1.41-.62,2.12-1.8,2.12-3.34v-9.17h-2.83v9.17Z"/>
        <path class="cls-5" d="M119.96,49.4l-14.34-9.57-5.97,4,13.66,9.22-8.19,5.57-13.66-9.22-5.89,4,14,9.74c2.9,2.17,7.85,2.17,11.01,.09l8.87-6c3.16-2.18,3.42-5.65,.51-7.83Z"/>
      </g>
    </g>
  </g>
</svg>