<?xml version="1.0" encoding="UTF-8"?>
<svg id="_레이어_2" data-name="레이어 2" xmlns="http://www.w3.org/2000/svg" xmlns:xlink="http://www.w3.org/1999/xlink" viewBox="0 0 350 128">
  <defs>
    <style>
      .cls-1 {
        fill: #f47e20;
      }

      .cls-2 {
        fill: #969696;
      }

      .cls-3 {
        fill: #8f50a0;
      }

      .cls-4 {
        fill: none;
      }

      .cls-5 {
        fill: url(#_무제_그라디언트_5);
      }
    </style>
    <linearGradient id="_무제_그라디언트_5" data-name="무제 그라디언트 5" x1="232.68" y1="53.15" x2="245.39" y2="53.15" gradientUnits="userSpaceOnUse">
      <stop offset="0" stop-color="#a0c6e9"/>
      <stop offset="1" stop-color="#b8e3f9"/>
    </linearGradient>
  </defs>
  <g id="_레이어_1-2" data-name="레이어 1">
    <g>
      <rect class="cls-4" width="350" height="128"/>
      <g>
        <g>
          <path class="cls-2" d="M101.96,67.53h-2.49c-.45,0-.78-.37-.78-.78v-.9c0-.45,.33-.78,.78-.78h2.49v-5.72c0-4.74,2.74-6.95,6.25-6.95,2.25,0,3.76,.98,4.5,1.68,.29,.25,.33,.65,.16,.94l-.65,1.06c-.25,.41-.65,.37-1.06,.04-.53-.41-1.76-1.19-2.98-1.19-1.88,0-3.39,1.27-3.39,4.41v5.72h4.74c.45,0,.78,.33,.78,.78v.9c0,.41-.33,.78-.78,.78h-4.74v13.12c0,.41-.37,.78-.78,.78h-1.27c-.41,0-.78-.37-.78-.78v-13.12Z"/>
          <path class="cls-2" d="M119.08,71.05c1.76,0,3.47,.53,3.47,.53,.04-3.02-.33-4.41-2.66-4.41s-4.17,.61-4.9,.9c-.41,.16-.65-.04-.78-.41l-.33-1.02c-.16-.49,.08-.74,.45-.9,.25-.12,2.62-1.06,5.68-1.06,4.17,0,5.19,2.12,5.19,6.91v9.07c0,.41-.37,.78-.78,.78h-.78c-.45,0-.57-.25-.69-.61l-.33-1.1c-.86,.86-2.53,2.12-5.07,2.12-2.86,0-5.03-2.08-5.03-5.35s2.33-5.44,6.54-5.44Zm-1.06,8.34c2.04,0,3.8-1.27,4.5-2.29v-3.23c-.49-.29-1.63-.65-3.43-.65-2.29,0-3.92,1.14-3.92,3.27,0,1.64,1.1,2.9,2.86,2.9Z"/>
          <path class="cls-2" d="M130.89,65.86c0-.41,.37-.78,.78-.78h.78c.37,0,.57,.16,.65,.49l.37,1.27s2.33-2.17,5.72-2.17c4.74,0,6.33,3.11,6.33,7.36v8.62c0,.41-.37,.78-.78,.78h-1.31c-.41,0-.78-.37-.78-.78v-8.62c0-3.11-1.39-4.62-3.68-4.62-3.07,0-5.27,2.33-5.27,2.33v10.91c0,.41-.37,.78-.78,.78h-1.27c-.41,0-.78-.37-.78-.78v-14.8Z"/>
          <path class="cls-2" d="M152.19,67.53h-2.08c-.45,0-.78-.37-.78-.78v-.9c0-.45,.33-.78,.78-.78h2.08v-4.54c0-.41,.37-.78,.78-.78l1.31-.08c.41,0,.74,.37,.74,.78v4.62h4.74c.45,0,.78,.33,.78,.78v.9c0,.41-.33,.78-.78,.78h-4.74v9.56c0,1.63,.41,1.96,1.35,1.96,1.02,0,2.45-.61,2.98-.9,.61-.33,.78-.08,.98,.25l.61,1.02c.29,.49,.16,.74-.29,1.02-.57,.37-2.78,1.39-4.7,1.39-3.27,0-3.76-1.96-3.76-4.5v-9.81Z"/>
          <path class="cls-2" d="M170.46,71.05c1.76,0,3.47,.53,3.47,.53,.04-3.02-.33-4.41-2.66-4.41s-4.17,.61-4.9,.9c-.41,.16-.65-.04-.78-.41l-.33-1.02c-.16-.49,.08-.74,.45-.9,.25-.12,2.62-1.06,5.68-1.06,4.17,0,5.19,2.12,5.19,6.91v9.07c0,.41-.37,.78-.78,.78h-.78c-.45,0-.57-.25-.69-.61l-.33-1.1c-.86,.86-2.53,2.12-5.07,2.12-2.86,0-5.03-2.08-5.03-5.35s2.33-5.44,6.54-5.44Zm-1.06,8.34c2.04,0,3.8-1.27,4.5-2.29v-3.23c-.49-.29-1.63-.65-3.43-.65-2.29,0-3.92,1.14-3.92,3.27,0,1.64,1.1,2.9,2.86,2.9Z"/>
          <path class="cls-2" d="M183.37,75.95s-1.31-1.68-1.31-4.09c0-3.8,2.66-7.19,6.91-7.19h6.91c.45,0,.78,.33,.78,.78v.69c0,.29-.16,.65-.45,.7l-2.21,.45s1.84,1.35,1.84,4.58c0,3.72-2.66,6.95-6.87,6.95-2.62,0-3.88-1.02-3.88-1.02,0,0-1.8,.82-1.8,2.45,0,1.02,.74,2,2.25,2h5.89c3.43,0,6.13,1.68,6.13,5.23s-3.51,6.62-8.46,6.62c-5.48,0-7.85-2.94-7.85-5.64,0-2.45,1.96-3.56,2.37-3.8v-.12c-1.06-.29-2.98-1.35-2.98-3.88,0-3.11,2.74-4.7,2.74-4.7Zm5.68,15.49c2.7,0,5.48-1.51,5.48-3.88,0-.53-.25-2.66-3.11-2.66h-4.54s-2.74,.74-2.74,3.15c0,1.96,2.13,3.39,4.9,3.39Zm4.05-19.66c0-2.7-1.63-4.58-4.09-4.58s-4.29,1.88-4.29,4.58,1.8,4.58,4.29,4.58,4.09-1.88,4.09-4.58Z"/>
          <path class="cls-2" d="M200.46,55.6c0-1.1,.86-1.96,1.92-1.96s1.96,.86,1.96,1.96-.86,1.92-1.96,1.92-1.92-.86-1.92-1.92Zm.57,10.26c0-.41,.37-.78,.78-.78h1.27c.41,0,.78,.37,.78,.78v14.8c0,.41-.37,.78-.78,.78h-1.27c-.41,0-.78-.37-.78-.78v-14.8Z"/>
          <path class="cls-2" d="M216.6,64.67c4.54,0,8.13,3.92,8.13,8.54s-3.6,8.62-8.13,8.62-8.13-3.92-8.13-8.62,3.6-8.54,8.13-8.54Zm0,14.51c2.98,0,5.31-2.66,5.31-5.97s-2.33-5.84-5.31-5.84-5.31,2.62-5.31,5.84,2.33,5.97,5.31,5.97Z"/>
        </g>
        <g>
          <polygon class="cls-1" points="251.31 68.95 251.31 44.91 235.4 37.73 232.68 38.3 245.39 44.03 248.53 45.44 248.53 56.61 240.39 62.46 251.31 68.95"/>
          <polygon class="cls-5" points="245.39 44.03 232.68 38.3 232.68 57.88 232.68 68.01 236.46 65.29 240.39 62.46 245.39 44.03"/>
          <polygon class="cls-3" points="245.39 44.03 236.46 50.24 236.46 60.13 240.39 62.46 248.53 56.61 248.53 45.44 245.39 44.03"/>
        </g>
      </g>
    </g>
  </g>
</svg>