<?xml version="1.0" encoding="UTF-8"?>
<svg id="_레이어_2" data-name="레이어 2" xmlns="http://www.w3.org/2000/svg" viewBox="0 0 350 128">
  <defs>
    <style>
      .cls-1 {
        fill: none;
      }
    </style>
  </defs>
  <g id="_레이어_1-2" data-name="레이어 1">
    <g>
      <rect class="cls-1" width="350" height="128"/>
      <g>
        <g>
          <polygon points="165.46 57.74 174.25 69.06 174.25 65.57 166.82 55.99 165.46 57.74"/>
          <polygon points="205.59 79.15 191.15 60.55 189.79 62.3 202.87 79.15 205.59 79.15"/>
          <polygon points="205.59 76.94 205.59 70.02 194.69 55.99 192.01 59.45 205.59 76.94"/>
          <polygon points="203.7 65.39 205.59 67.82 205.59 41.95 203.7 44.38 203.7 65.39"/>
          <polygon points="175 72.23 164.6 58.84 161.92 62.3 175 79.15 207.3 37.54 207.3 79.15 211.45 79.15 211.45 30.62 207.3 30.62 175 72.23"/>
          <polygon points="202.87 30.62 175.74 65.57 175.74 69.06 205.59 30.62 202.87 30.62"/>
          <g>
            <polygon points="184.54 52.03 175.74 40.7 175.74 44.2 183.18 53.78 184.54 52.03"/>
            <polygon points="144.41 30.62 158.85 49.22 160.2 47.47 147.12 30.62 144.41 30.62"/>
            <polygon points="144.41 32.83 144.41 39.74 155.3 53.78 157.99 50.32 144.41 32.83"/>
            <polygon points="146.3 44.38 144.41 41.95 144.41 67.82 146.3 65.39 146.3 44.38"/>
            <polygon points="175 37.54 185.39 50.93 188.08 47.47 175 30.62 142.7 72.23 142.7 30.62 138.55 30.62 138.55 79.15 142.7 79.15 175 37.54"/>
            <polygon points="147.12 79.15 174.25 44.2 174.25 40.7 144.41 79.15 147.12 79.15"/>
          </g>
        </g>
        <g>
          <path d="M138.55,93.47h2.22v.5h-1.66v1.19h1.6v.5h-1.6v1.22h1.71v.5h-2.27v-3.91Z"/>
          <path d="M146.93,93.47h.53v3.91h-.48l-2.62-3.01v3.01h-.53v-3.91h.45l2.64,3.04v-3.04Z"/>
          <path d="M150.38,93.46h3.27v.5h-1.36v3.42h-.56v-3.42h-1.34v-.5Z"/>
          <path d="M156.58,93.47h2.22v.5h-1.66v1.19h1.6v.5h-1.6v1.22h1.71v.5h-2.27v-3.91Z"/>
          <path d="M161.87,97.38v-3.91h.98c.4,0,.71,.1,.94,.29,.23,.2,.35,.46,.35,.8,0,.23-.06,.42-.17,.59-.11,.17-.28,.29-.49,.37,.12,.08,.25,.19,.37,.34,.12,.14,.29,.39,.5,.74,.14,.22,.25,.39,.33,.5l.21,.28h-.67l-.17-.26s-.02-.03-.03-.05l-.11-.15-.17-.29-.19-.31c-.12-.16-.22-.29-.32-.38-.1-.09-.18-.16-.26-.21-.08-.04-.21-.06-.39-.06h-.15v1.7h-.56Zm.73-3.44h-.17v1.23h.21c.28,0,.48-.02,.58-.07,.11-.05,.19-.12,.25-.22,.06-.1,.09-.21,.09-.33s-.03-.23-.1-.33c-.07-.1-.16-.17-.28-.21-.12-.04-.31-.06-.59-.06Z"/>
          <path d="M166.88,93.46h3.27v.5h-1.36v3.42h-.56v-3.42h-1.34v-.5Z"/>
          <path d="M173.76,93.45h.39l1.75,3.93h-.57l-.52-1.16h-1.67l-.49,1.16h-.58l1.68-3.93Zm.82,2.28l-.63-1.42-.59,1.42h1.22Z"/>
          <path d="M178.75,93.47h.56v3.91h-.56v-3.91Z"/>
          <path d="M185.69,93.47h.53v3.91h-.48l-2.62-3.01v3.01h-.53v-3.91h.45l2.64,3.04v-3.04Z"/>
          <path d="M192.58,93.47h.52v3.91h-.56v-3.04l-1.2,1.51h-.1l-1.22-1.51v3.04h-.56v-3.91h.53l1.3,1.61,1.29-1.61Z"/>
          <path d="M196.36,93.47h2.22v.5h-1.66v1.19h1.6v.5h-1.6v1.22h1.71v.5h-2.27v-3.91Z"/>
          <path d="M204.74,93.47h.53v3.91h-.48l-2.62-3.01v3.01h-.53v-3.91h.45l2.64,3.04v-3.04Z"/>
          <path d="M208.18,93.46h3.27v.5h-1.36v3.42h-.56v-3.42h-1.34v-.5Z"/>
        </g>
      </g>
    </g>
  </g>
</svg>