<?xml version="1.0" encoding="UTF-8"?>
<svg id="_레이어_2" data-name="레이어 2" xmlns="http://www.w3.org/2000/svg" viewBox="0 0 350 128">
  <defs>
    <style>
      .cls-1 {
        fill: #13090b;
      }

      .cls-2 {
        fill: none;
      }
    </style>
  </defs>
  <g id="_레이어_1-2" data-name="레이어 1">
    <g>
      <rect class="cls-2" width="350" height="128"/>
      <g>
        <polygon class="cls-1" points="146.31 58.4 146.31 61.9 143.58 61.9 143.58 58.4 139.8 49.76 142.67 49.76 144.94 55.39 147.22 49.76 150.09 49.76 146.31 58.4"/>
        <path class="cls-1" d="M155.17,62.08c-2.95,0-4.45-1.51-4.45-3.72v-5.07c0-2.24,1.5-3.72,4.45-3.72,1.41,0,2.84,.18,3.88,.38l-.33,2.39c-1.06-.16-2.68-.29-3.56-.29-1.37,0-1.71,.71-1.71,1.66v4.17c0,.95,.35,1.73,1.71,1.73,.55,0,.91-.02,1.62-.11v-3.72h2.57v5.71c-1.33,.38-2.79,.58-4.19,.58"/>
        <polygon class="cls-1" points="140.99 78.34 140.99 66.2 148.63 66.2 148.63 68.63 143.72 68.63 143.72 70.85 148.24 70.85 148.24 73.27 143.72 73.27 143.72 75.92 148.63 75.92 148.63 78.34 140.99 78.34"/>
        <polygon class="cls-1" points="153.33 70.36 153.33 78.34 150.73 78.34 150.73 66.2 154.08 66.2 158.07 74.57 158.07 66.2 160.68 66.2 160.68 78.34 157.31 78.34 153.33 70.36"/>
        <polygon class="cls-1" points="168.09 68.63 168.09 78.34 165.35 78.34 165.35 68.63 162.09 68.63 162.09 66.2 171.35 66.2 171.35 68.63 168.09 68.63"/>
        <polygon class="cls-1" points="172.75 78.34 172.75 66.2 180.39 66.2 180.39 68.63 175.49 68.63 175.49 70.85 180.01 70.85 180.01 73.27 175.49 73.27 175.49 75.92 180.39 75.92 180.39 78.34 172.75 78.34"/>
        <path class="cls-1" d="M186.83,74.57h-1.6v3.77h-2.74v-12.14h5.05c2.95,0,4.05,1.17,4.05,3.45v1.5c0,1.51-.55,2.53-1.77,3.05l2.94,4.16h-3.25l-2.68-3.77Zm2.02-4.67c0-.91-.35-1.28-1.46-1.28h-2.17v3.57h2.17c1.17,0,1.46-.42,1.46-1.33v-.97Z"/>
        <polygon class="cls-1" points="198.79 68.63 198.79 78.34 196.06 78.34 196.06 68.63 192.8 68.63 192.8 66.2 202.06 66.2 202.06 68.63 198.79 68.63"/>
        <path class="cls-1" d="M212.62,78.34h-2.84l-.66-2.37h-4.07l-.66,2.37h-2.84l3.7-12.14h3.65l3.72,12.14Zm-6.95-4.65h2.79l-1.39-5.09-1.4,5.09Z"/>
        <rect class="cls-1" x="214.08" y="66.2" width="2.73" height="12.14"/>
        <polygon class="cls-1" points="221.88 70.36 221.88 78.34 219.27 78.34 219.27 66.2 222.63 66.2 226.62 74.57 226.62 66.2 229.23 66.2 229.23 78.34 225.86 78.34 221.88 70.36"/>
        <polygon class="cls-1" points="234.24 71.6 234.06 78.34 231.42 78.34 231.93 66.2 234.66 66.2 237.58 73.93 240.5 66.2 243.23 66.2 243.74 78.34 241.1 78.34 240.92 71.6 238.8 76.78 236.36 76.78 234.24 71.6"/>
        <polygon class="cls-1" points="245.93 78.34 245.93 66.2 253.57 66.2 253.57 68.63 248.67 68.63 248.67 70.85 253.19 70.85 253.19 73.27 248.67 73.27 248.67 75.92 253.57 75.92 253.57 78.34 245.93 78.34"/>
        <polygon class="cls-1" points="258.28 70.36 258.28 78.34 255.67 78.34 255.67 66.2 259.03 66.2 263.02 74.57 263.02 66.2 265.63 66.2 265.63 78.34 262.25 78.34 258.28 70.36"/>
        <polygon class="cls-1" points="273.03 68.63 273.03 78.34 270.3 78.34 270.3 68.63 267.03 68.63 267.03 66.2 276.3 66.2 276.3 68.63 273.03 68.63"/>
        <polygon class="cls-1" points="73.7 49.61 73.7 65.95 90.04 49.61 73.7 49.61"/>
        <polygon class="cls-1" points="102.52 49.61 73.71 78.42 86.79 78.42 102.52 62.69 118.22 78.42 131.33 78.42 131.33 62.86 122.79 62.86 122.79 70.12 110.75 58.08 131.33 58.08 131.33 49.61 102.52 49.61"/>
      </g>
    </g>
  </g>
</svg>