<?xml version="1.0" encoding="UTF-8"?>
<svg id="_레이어_2" data-name="레이어 2" xmlns="http://www.w3.org/2000/svg" viewBox="0 0 350 128">
  <defs>
    <style>
      .cls-1 {
        fill: #f7ae25;
      }

      .cls-2 {
        fill: none;
      }
    </style>
  </defs>
  <g id="_레이어_1-2" data-name="레이어 1">
    <g>
      <rect class="cls-2" width="350" height="128"/>
      <g>
        <g>
          <path d="M196.56,64.91h1.99v1.62c.32-.44,.6-.78,.84-.99,.34-.31,.73-.55,1.15-.72,.43-.17,.89-.26,1.38-.26s.94,.08,1.37,.25c.43,.16,.78,.38,1.05,.64,.27,.26,.52,.63,.75,1.09,.52-.71,1.05-1.22,1.58-1.52,.53-.3,1.16-.45,1.88-.45s1.29,.13,1.82,.38c.53,.25,.93,.56,1.21,.91,.28,.35,.47,.74,.56,1.15,.09,.42,.14,1.02,.14,1.82v7.79h-2.04v-8.2c0-.67-.18-1.19-.54-1.55-.36-.36-.86-.55-1.49-.55-.79,0-1.46,.29-2,.87-.54,.58-.81,1.39-.81,2.43v7h-1.99v-8.11c0-.76-.16-1.32-.49-1.67-.32-.35-.79-.52-1.39-.52-.83,0-1.54,.33-2.12,.99-.58,.66-.87,1.47-.87,2.41v6.89h-1.99v-11.7Z"/>
          <path d="M224.69,72.89c-.2,.83-.45,1.48-.76,1.95-.42,.64-.99,1.16-1.71,1.56-.72,.4-1.53,.6-2.44,.6-1.02,0-1.93-.25-2.73-.76-.8-.51-1.41-1.24-1.81-2.2-.4-.95-.6-2.02-.6-3.2,0-1.95,.5-3.5,1.5-4.63,1-1.13,2.23-1.7,3.7-1.7,.81,0,1.57,.17,2.29,.52,.71,.35,1.28,.83,1.69,1.46,.42,.63,.7,1.37,.86,2.23,.09,.53,.13,1.44,.12,2.73h-8.12c.02,.75,.15,1.41,.38,1.98,.23,.57,.59,1.01,1.08,1.32,.48,.31,1.04,.47,1.66,.47,.75,0,1.37-.18,1.85-.54,.48-.36,.87-.96,1.18-1.81h1.85Zm-1.79-3.03c-.05-1.19-.35-2.08-.9-2.67-.55-.6-1.26-.89-2.13-.89s-1.56,.31-2.16,.93c-.59,.62-.93,1.5-1.02,2.64h6.21Z"/>
          <path d="M235.05,66.26v-6.06h2.05v16.62h-1.84v-1.51c-.41,.47-.78,.82-1.09,1.06-.31,.24-.69,.44-1.15,.59-.46,.16-.96,.24-1.52,.24-1.45,0-2.66-.53-3.62-1.59-.96-1.06-1.44-2.58-1.44-4.57,0-1.19,.19-2.3,.56-3.32,.37-1.02,.96-1.84,1.77-2.45,.81-.61,1.75-.92,2.83-.92,.63,0,1.17,.1,1.62,.29,.45,.19,.83,.44,1.15,.74,.2,.2,.43,.49,.69,.89Zm-6.52,4.63c0,1.56,.34,2.75,1.02,3.57,.53,.64,1.27,.96,2.24,.96,1.04,0,1.87-.38,2.5-1.14,.63-.76,.94-1.98,.94-3.67,0-1.32-.25-2.35-.75-3.1-.63-.94-1.48-1.41-2.57-1.41-.62,0-1.19,.17-1.71,.5-.52,.34-.93,.87-1.23,1.61-.3,.74-.45,1.63-.45,2.67Z"/>
          <path d="M240.08,62.55v-2.35h2.06v2.35h-2.06Zm0,14.26v-12.11h2.06v12.11h-2.06Z"/>
          <path d="M245.14,68.28c.04-.68,.15-1.24,.33-1.68,.17-.45,.44-.83,.78-1.16,.35-.33,.82-.6,1.41-.8,.59-.2,1.29-.3,2.09-.3s1.47,.09,2.05,.26c.58,.17,1.04,.41,1.38,.72,.34,.31,.59,.67,.75,1.06,.16,.4,.23,.85,.23,1.35v6.64c0,.35,.05,.59,.17,.72,.11,.13,.26,.19,.46,.19,.15,0,.36-.03,.64-.09v1.44c-.43,.1-.8,.16-1.11,.16-.66,0-1.14-.14-1.45-.41-.3-.27-.48-.71-.54-1.32-.58,.65-1.19,1.13-1.83,1.45-.64,.32-1.38,.48-2.22,.48-1.12,0-2-.33-2.66-.98-.65-.65-.98-1.49-.98-2.52,0-.59,.11-1.13,.32-1.6,.21-.48,.51-.87,.9-1.19,.23-.2,.54-.39,.94-.56,.4-.17,.83-.28,1.28-.33l3.09-.4c.39-.05,.67-.18,.84-.4,.17-.21,.26-.54,.26-.97,0-.66-.2-1.17-.6-1.53-.4-.36-1.07-.53-2.01-.53-.87,0-1.52,.19-1.95,.57-.42,.38-.67,.95-.74,1.73h-1.84Zm7.09,2.28c-.2,.14-.41,.25-.63,.31-.33,.1-.95,.21-1.87,.35-.68,.1-1.12,.17-1.34,.23-.43,.11-.77,.25-1.02,.43-.26,.17-.44,.38-.57,.61-.12,.23-.18,.51-.18,.85,0,.6,.19,1.09,.56,1.46,.37,.38,.9,.56,1.58,.56,.87,0,1.66-.27,2.38-.8,.72-.53,1.08-1.23,1.08-2.09v-1.92Z"/>
        </g>
        <g>
          <path d="M124.43,76.95v-25.9h10.95c2.01,0,3.82,.25,5.42,.74,1.61,.49,2.97,1.25,4.11,2.27,1.13,1.02,2,2.31,2.6,3.87,.6,1.56,.9,3.41,.9,5.54,0,2.45-.31,4.52-.94,6.22-.62,1.7-1.51,3.09-2.67,4.17-1.16,1.08-2.55,1.86-4.18,2.36-1.63,.49-3.45,.74-5.46,.74h-10.74Zm8.19-6.04h1.8c1.97,0,3.48-.55,4.53-1.65,1.06-1.1,1.58-2.88,1.58-5.32,0-1.34-.11-2.46-.34-3.35-.23-.89-.59-1.59-1.1-2.1-.5-.52-1.16-.88-1.96-1.08-.8-.2-1.77-.31-2.9-.31h-1.62v13.81Z"/>
          <path d="M164.35,58.35c-.07-.44-.23-.76-.32-1.08-.13-.49-.71-1.03-1.01-1.2-.57-.3-1.5-.54-2.34-.54-.8,0-1.75,.17-2.43,.69-.58,.45-.88,.99-.88,1.46,0,1.07,.81,1.46,1.29,1.65,.56,.23,1.08,.32,1.77,.47,.81,.18,1.45,.36,2.29,.55,.84,.2,1.6,.35,2.49,.58,.9,.23,1.53,.48,2.38,.82,.85,.34,1.54,.72,2.28,1.29,.72,.55,1.45,1.24,1.86,2.05,.41,.8,.61,2.35,.61,3.49,0,1.46-.29,2.74-.85,3.82-.57,1.08-1.36,1.98-2.37,2.68-1.01,.71-2.23,1.24-3.64,1.6-1.41,.36-2.96,.54-4.65,.54s-3.09-.23-4.41-.68c-1.32-.45-2.45-1.06-3.4-1.83-.95-.77-1.69-1.66-2.22-2.67-.54-1.01-.94-2.8-.98-3.94h7.44c.16,.88,.46,2.17,1.23,2.77,.32,.21,.87,.57,1.28,.67,.41,.1,1.12,.22,1.51,.22,1.02,0,2.05-.15,2.65-.47,.6-.31,1.29-1.09,1.29-1.91,0-.93-.48-1.37-1.35-1.81-.69-.35-1.85-.66-2.9-.93-1.05-.27-2.19-.56-3.42-.87-1.23-.31-2.37-.76-3.42-1.34-1.05-.58-1.92-1.36-2.61-2.34-.7-.98-1.04-1.69-1.04-3.3,0-1.33,.27-2.49,.8-3.5,.53-1.01,1.28-1.85,2.22-2.51,.94-.66,2.07-1.16,3.37-1.5,1.3-.34,2.72-.51,4.27-.51,1.71,0,3.57,.21,4.82,.63,1.25,.42,2.31,.99,3.16,1.71,.85,.72,1.52,1.56,2,2.53,.48,.96,.73,1.6,.86,2.7h-7.64Z"/>
          <path d="M174.98,76.84v-25.79h11.66c3.47,0,6.06,.72,7.76,2.17,1.7,1.45,2.55,3.39,2.55,5.82,0,1.27-.2,2.42-.59,3.46-.39,1.03-1,1.91-1.83,2.63-.83,.72-1.87,1.28-3.12,1.66-1.25,.38-2.75,.58-4.5,.58h-4v9.47h-7.93Zm11.22-14.79c.94,0,1.71-.22,2.3-.67,.59-.44,.89-1.23,.89-2.36,0-.6-.14-1.08-.42-1.44-.28-.36-.63-.64-1.06-.83-.43-.19-.88-.32-1.38-.38-.49-.06-.95-.09-1.38-.09h-2.25v5.76h3.29Z"/>
        </g>
        <g>
          <path class="cls-1" d="M102.82,60.42c-.26-.93-.68-1.67-1.25-2.21-.57-.54-.93-.92-1.85-1.13-.92-.21-2.02-.32-3.3-.32h-1.85v14.48h2.05c2.24,0,3.83-.07,5.04-1.23,1.2-1.16,1.55-3.52,1.55-6.08,0-1.41-.13-2.58-.39-3.51Z"/>
          <path class="cls-1" d="M102.96,51.19c.29,.07,.58,.14,.86,.22,1.76,.51,3.26,1.29,4.5,2.34,1.24,1.05,2.23,2.64,2.85,4.26,.64,1.69,.99,3.24,.99,5.44,0,2.52-.23,4.77-.91,6.53-.68,1.76-1.66,3.19-2.93,4.3-1.27,1.11-2.91,1.81-4.69,2.32-.28,.08-.58,.15-.87,.22h16.76v-25.63h-16.56Z"/>
        </g>
      </g>
    </g>
  </g>
</svg>