<?xml version="1.0" encoding="UTF-8"?>
<svg id="_레이어_2" data-name="레이어 2" xmlns="http://www.w3.org/2000/svg" xmlns:xlink="http://www.w3.org/1999/xlink" viewBox="0 0 350 128">
  <defs>
    <style>
      .cls-1 {
        clip-path: url(#clippath-11);
      }

      .cls-2 {
        clip-path: url(#clippath-16);
      }

      .cls-3 {
        clip-path: url(#clippath-2);
      }

      .cls-4 {
        clip-path: url(#clippath-13);
      }

      .cls-5 {
        fill: #040000;
      }

      .cls-6 {
        clip-path: url(#clippath-15);
      }

      .cls-7 {
        clip-path: url(#clippath-6);
      }

      .cls-8 {
        clip-path: url(#clippath-7);
      }

      .cls-9 {
        clip-path: url(#clippath-1);
      }

      .cls-10 {
        clip-path: url(#clippath-4);
      }

      .cls-11 {
        clip-path: url(#clippath-12);
      }

      .cls-12 {
        clip-path: url(#clippath-9);
      }

      .cls-13 {
        clip-path: url(#clippath);
      }

      .cls-14 {
        fill: none;
      }

      .cls-15 {
        clip-path: url(#clippath-3);
      }

      .cls-16 {
        clip-path: url(#clippath-8);
      }

      .cls-17 {
        clip-path: url(#clippath-14);
      }

      .cls-18 {
        clip-path: url(#clippath-5);
      }

      .cls-19 {
        clip-path: url(#clippath-10);
      }
    </style>
    <clipPath id="clippath">
      <rect class="cls-14" x="135" y="25.71" width="80" height="76.58"/>
    </clipPath>
    <clipPath id="clippath-1">
      <rect class="cls-14" x="135" y="25.71" width="80" height="76.58"/>
    </clipPath>
    <clipPath id="clippath-2">
      <rect class="cls-14" x="135" y="25.71" width="80" height="76.58"/>
    </clipPath>
    <clipPath id="clippath-3">
      <rect class="cls-14" x="135" y="25.71" width="80" height="76.58"/>
    </clipPath>
    <clipPath id="clippath-4">
      <rect class="cls-14" x="135" y="25.71" width="80" height="76.58"/>
    </clipPath>
    <clipPath id="clippath-5">
      <rect class="cls-14" x="135" y="25.71" width="80" height="76.58"/>
    </clipPath>
    <clipPath id="clippath-6">
      <rect class="cls-14" x="135" y="25.71" width="80" height="76.58"/>
    </clipPath>
    <clipPath id="clippath-7">
      <rect class="cls-14" x="135" y="25.71" width="80" height="76.58"/>
    </clipPath>
    <clipPath id="clippath-8">
      <rect class="cls-14" x="135" y="25.71" width="80" height="76.58"/>
    </clipPath>
    <clipPath id="clippath-9">
      <rect class="cls-14" x="135" y="25.71" width="80" height="76.58"/>
    </clipPath>
    <clipPath id="clippath-10">
      <rect class="cls-14" x="135" y="25.71" width="80" height="76.58"/>
    </clipPath>
    <clipPath id="clippath-11">
      <rect class="cls-14" x="135" y="25.71" width="80" height="76.58"/>
    </clipPath>
    <clipPath id="clippath-12">
      <rect class="cls-14" x="135" y="25.71" width="80" height="76.58"/>
    </clipPath>
    <clipPath id="clippath-13">
      <rect class="cls-14" x="135" y="25.71" width="80" height="76.58"/>
    </clipPath>
    <clipPath id="clippath-14">
      <rect class="cls-14" x="135" y="25.71" width="80" height="76.58"/>
    </clipPath>
    <clipPath id="clippath-15">
      <rect class="cls-14" x="135" y="25.71" width="80" height="76.58"/>
    </clipPath>
    <clipPath id="clippath-16">
      <rect class="cls-14" x="135" y="25.71" width="80" height="76.58"/>
    </clipPath>
  </defs>
  <g id="_레이어_1-2" data-name="레이어 1">
    <g>
      <rect class="cls-14" width="350" height="128"/>
      <g>
        <g class="cls-13">
          <path class="cls-5" d="M179.03,42.09c.5-.58,1.01-1.15,1.55-1.69,4.18-4.18,8.32-8.35,12.49-12.49,2.59-2.59,6.55-2.63,9.14-.07,.72,.72,1.26,1.69,1.91,2.59,.5-.14,1.19-.36,1.84-.47,4.21-.72,8.06,2.34,8.32,6.62v22.39c0,3.06-1.8,5.36-4.64,5.98-3.35,.68-6.7-1.87-6.77-5.29-.07-3.6-.04-7.16-.04-10.8v-15.41c-.32,.29-.54,.43-.68,.61-3.96,3.96-7.81,7.85-11.7,11.74-2.81,2.84-6.88,2.84-9.72,0-.54-.54-1.08-1.12-1.73-1.8-.5,.54-.94,1.08-1.44,1.55-1.01,1.01-2.16,1.8-3.6,2.09-2.16,.43-4.03-.22-5.58-1.66-1.98-1.84-3.85-3.78-5.76-5.65-2.12-2.12-4.21-4.25-6.34-6.34-1.22-1.22-2.63-1.94-4.28-2.27-.5-.11-.72,.04-.9,.5-1.26,3.06-.58,6.55,1.8,8.93,4.57,4.61,9.18,9.22,13.82,13.86l5.58,5.58c2.77,2.77,3.67,7.02,2.16,10.62-1.58,3.74-5.08,6.05-9.14,5.94-.54,0-.9,.14-1.26,.54-3.6,4.1-9.86,4.5-13.82,.72-3.92-3.78-7.7-7.7-11.56-11.52-.72-.72-1.48-1.48-2.2-2.2-2.02-2.09-2.02-5.33,0-7.31,2.02-2.02,5.22-2.05,7.31-.04,3.2,3.17,6.34,6.34,9.54,9.54,2.12,2.12,4.21,4.25,6.34,6.34,1.01,1.01,2.2,1.76,3.56,2.16,.5,.14,.72,0,.94-.43,1.55-3.2,.9-6.91-1.69-9.54-3.96-4.03-7.96-8.03-11.95-12.06-2.23-2.27-4.57-4.46-6.77-6.77-5.36-5.36-3.02-14.08,4.21-16.09,.61-.18,1.33-.18,1.98-.32,.29-.07,.65-.22,.83-.43,3.71-4.9,10.44-5.4,14.8-1.04,4.32,4.25,8.6,8.53,12.89,12.85,.14,.14,.29,.29,.58,.54m-13.54,33.66h.58c4.61-.36,8.35-4.61,7.42-9.79-.36-1.94-1.44-3.46-2.77-4.79-6.26-6.23-12.49-12.49-18.72-18.76-2.2-2.23-3.24-4.86-2.92-8.03,.07-.86,.32-1.76,.5-2.63-.68-.11-1.98,.25-3.02,.83-4.86,2.7-5.76,9.14-1.76,13.18,6.19,6.26,12.42,12.49,18.65,18.76,2.09,2.09,3.06,4.64,2.81,7.63-.11,1.15-.47,2.3-.76,3.6m38.7-29.59h0v13.25c0,2.74,2.7,4.75,5.36,4.07,2.02-.5,3.28-2.2,3.28-4.39v-17.14c0-1.73,.04-3.42-.04-5.11-.14-4.07-4.28-6.7-7.92-5.04-.5,.22-.68,.5-.68,1.12,.04,4.39,0,8.82,0,13.25m-41.33,30.82c-.32-.18-.4-.22-.5-.25-1.76-.58-3.17-1.69-4.43-2.99-5-5.04-10.04-10.12-15.08-15.12-1.62-1.62-3.89-1.69-5.4-.18-1.55,1.51-1.51,3.82,.07,5.4,4.46,4.5,8.89,8.96,13.39,13.43,3.06,3.02,7.74,3.2,11.05,.43,.25-.25,.5-.43,.9-.72m-10.69-46.66c2.48,.47,4.28,1.84,5.9,3.49,3.42,3.53,6.88,6.95,10.37,10.4,.61,.61,1.4,1.19,2.16,1.66,1.26,.72,2.59,.72,3.92,.11,1.37-.61,2.27-1.76,3.31-2.81-.11-.14-.18-.25-.25-.32-4.43-4.5-8.86-9-13.36-13.43-3.2-3.1-8.39-2.88-11.45,.29-.22,.14-.32,.32-.61,.61m27.69,12.82c.61,.54,1.15,.94,1.55,1.44,2.3,2.59,5.83,2.48,8.21,.04,4.18-4.32,8.5-8.53,12.71-12.82,.14-.14,.25-.54,.18-.76-.83-2.74-3.85-4.25-6.52-3.24-.72,.29-1.48,.79-2.02,1.37-3.53,3.49-7.02,6.98-10.51,10.51-1.15,1.08-2.34,2.2-3.6,3.46"/>
        </g>
        <g class="cls-9">
          <path class="cls-5" d="M208.45,80.44c-3.42,0-6.08-2.74-6.08-6.16s2.7-6.12,6.08-6.16c3.46,0,6.16,2.74,6.16,6.23s-2.74,6.08-6.16,6.08m.07-10.84c-2.56,0-4.68,2.05-4.68,4.61s2.09,4.75,4.64,4.75,4.72-2.16,4.72-4.72c.04-2.52-2.09-4.61-4.68-4.64"/>
        </g>
        <g class="cls-3">
          <path class="cls-5" d="M141.3,92.28c-.36,0-.72-.04-1.04-.14-.32-.07-.61-.18-.83-.32s-.4-.25-.54-.36-.25-.22-.32-.32l.68-.72c.58,.58,1.26,.86,2.05,.86,.47,0,.79-.07,1.01-.22,.22-.14,.32-.36,.32-.58,0-.07,0-.14-.04-.18s-.04-.11-.07-.14c-.04-.04-.07-.07-.11-.11-.04-.04-.07-.07-.14-.11s-.11-.07-.14-.07-.07-.04-.18-.07-.14-.04-.18-.07c-.04,0-.11-.04-.18-.04-.11-.04-.14-.04-.18-.04-.11-.04-.29-.07-.5-.14-.22-.04-.43-.11-.58-.14-.18-.04-.32-.11-.5-.18-.68-.29-1.04-.76-1.04-1.4,0-.36,.11-.65,.36-.94,.22-.25,.54-.47,.86-.58s.72-.18,1.12-.18c.47,0,.9,.07,1.33,.22,.43,.14,.79,.36,1.08,.61l-.5,.79c-.58-.43-1.19-.65-1.87-.65-.36,0-.68,.07-.94,.18-.25,.11-.36,.29-.36,.54,0,.22,.11,.36,.29,.5s.54,.25,1.04,.36c.72,.14,1.26,.32,1.55,.5,.61,.32,.9,.79,.9,1.44,0,.29-.07,.58-.22,.83s-.32,.43-.58,.58c-.25,.14-.5,.25-.76,.32-.25-.07-.5-.04-.79-.04"/>
        </g>
        <g class="cls-15">
          <polygon class="cls-5" points="149.87 86.12 150.88 86.12 150.88 92.17 149.83 92.17 149.83 87.96 147.89 90.62 145.95 87.92 145.95 92.17 144.9 92.17 144.9 86.12 145.87 86.12 147.89 88.93 149.87 86.12"/>
        </g>
        <g class="cls-10">
          <polygon class="cls-5" points="138.93 102.29 138.93 96.24 143.5 96.24 143.5 97.21 139.97 97.21 139.97 98.62 142.56 98.62 142.56 99.59 139.97 99.59 139.97 101.32 143.53 101.32 143.53 102.29 138.93 102.29"/>
        </g>
        <g class="cls-18">
          <polygon class="cls-5" points="144.79 102.29 144.79 96.24 145.77 96.24 149.01 100.49 149.04 96.24 150.05 96.24 150.05 102.29 149.11 102.29 145.84 98.04 145.84 102.29 144.79 102.29"/>
        </g>
        <g class="cls-7">
          <polygon class="cls-5" points="153.11 102.29 153.11 97.21 151.2 97.21 151.2 96.24 156.06 96.24 156.06 97.21 154.15 97.21 154.15 102.29 153.11 102.29"/>
        </g>
        <g class="cls-8">
          <polygon class="cls-5" points="157.21 102.29 157.21 96.24 161.75 96.24 161.75 97.21 158.26 97.21 158.26 98.62 160.85 98.62 160.85 99.59 158.26 99.59 158.26 101.32 161.82 101.32 161.82 102.29 157.21 102.29"/>
        </g>
        <g class="cls-16">
          <path class="cls-5" d="M163.08,102.29v-6.05h3.1c.32,0,.58,.07,.83,.18,.25,.11,.43,.25,.54,.43s.22,.36,.29,.58c.07,.22,.11,.4,.11,.65,0,.4-.11,.76-.29,1.08s-.5,.54-.9,.65l1.51,2.48h-1.22l-1.4-2.41h-1.51v2.41h-1.04Zm1.04-3.38h1.94c.25,0,.43-.07,.58-.22,.14-.14,.22-.36,.22-.61s-.07-.43-.18-.61c-.14-.14-.32-.22-.54-.22h-1.98v1.66h-.04Z"/>
        </g>
        <g class="cls-12">
          <polygon class="cls-5" points="170.5 102.29 170.5 97.21 168.59 97.21 168.59 96.24 173.45 96.24 173.45 97.21 171.58 97.21 171.58 102.29 170.5 102.29"/>
        </g>
        <g class="cls-19">
          <path class="cls-5" d="M173.31,102.29l2.81-6.08h.94l2.81,6.08h-1.12l-.65-1.4h-3.06l-.65,1.4h-1.08Zm2.16-2.38h2.2l-1.08-2.38-1.12,2.38Z"/>
        </g>
        <g class="cls-1">
          <rect class="cls-5" x="180.8" y="96.24" width="1.04" height="6.05"/>
        </g>
        <g class="cls-11">
          <polygon class="cls-5" points="183.5 102.29 183.5 96.24 184.47 96.24 187.71 100.49 187.71 96.24 188.75 96.24 188.75 102.29 187.82 102.29 184.54 98.04 184.54 102.29 183.5 102.29"/>
        </g>
        <g class="cls-4">
          <polygon class="cls-5" points="195.31 96.24 196.28 96.24 196.28 102.29 195.23 102.29 195.23 98.08 193.29 100.74 191.38 98.04 191.38 102.29 190.34 102.29 190.34 96.24 191.31 96.24 193.29 99.05 195.31 96.24"/>
        </g>
        <g class="cls-17">
          <polygon class="cls-5" points="197.86 102.29 197.86 96.24 202.43 96.24 202.43 97.21 198.91 97.21 198.91 98.62 201.5 98.62 201.5 99.59 198.91 99.59 198.91 101.32 202.47 101.32 202.47 102.29 197.86 102.29"/>
        </g>
        <g class="cls-6">
          <polygon class="cls-5" points="203.73 102.29 203.73 96.24 204.7 96.24 207.94 100.49 207.98 96.24 209.02 96.24 209.02 102.29 208.05 102.29 204.77 98.04 204.77 102.29 203.73 102.29"/>
        </g>
        <g class="cls-2">
          <polygon class="cls-5" points="212.05 102.29 212.05 97.21 210.14 97.21 210.14 96.24 215 96.24 215 97.21 213.13 97.21 213.13 102.29 212.05 102.29"/>
        </g>
      </g>
    </g>
  </g>
</svg>