<?xml version="1.0" encoding="UTF-8"?>
<svg id="_레이어_2" data-name="레이어 2" xmlns="http://www.w3.org/2000/svg" viewBox="0 0 350 128">
  <defs>
    <style>
      .cls-1 {
        fill: #040000;
      }

      .cls-2 {
        fill: none;
      }

      .cls-3 {
        fill: #1f91d1;
      }
    </style>
  </defs>
  <g id="_레이어_1-2" data-name="레이어 1">
    <g>
      <rect class="cls-2" width="350" height="128"/>
      <g>
        <g>
          <path class="cls-1" d="M155.56,71.74v-15.58h2.17v13.77h3.64v1.81h-5.81Z"/>
          <path class="cls-1" d="M162.53,71.74v-15.58h5.9v1.81h-3.73v4.88h3.51v1.81h-3.51v5.27h3.73v1.81h-5.9Z"/>
          <path class="cls-1" d="M169.27,71.74l3.45-15.58h2.52l3.19,15.58h-2.17l-.72-3.97h-3.38l-.72,3.97h-2.17Zm4.58-13.3l-1.37,7.51h2.76l-1.34-7.51h-.04Z"/>
          <path class="cls-1" d="M179.61,71.74v-15.58h3.49c1.69,0,2.76,.38,3.21,1.14,.39,.65,.59,2.17,.59,4.55v4.64c0,2.04-.26,3.42-.78,4.12-.56,.75-1.69,1.12-3.36,1.12h-3.15Zm2.17-13.77v11.96h1.04c.78,0,1.3-.25,1.56-.76,.23-.46,.35-1.38,.35-2.76v-5.35c0-1.22-.12-2.03-.35-2.42-.28-.45-.85-.67-1.74-.67h-.87Z"/>
          <path class="cls-1" d="M188.34,71.74v-15.58h5.9v1.81h-3.73v4.88h3.51v1.81h-3.51v5.27h3.73v1.81h-5.9Z"/>
          <path class="cls-1" d="M195.35,71.74v-15.58h3.36c1.53,0,2.51,.28,2.93,.84,.38,.5,.56,1.64,.56,3.41,0,1.11-.12,1.89-.37,2.35-.28,.53-.84,.93-1.69,1.19v.04c.72,.07,1.23,.3,1.53,.68,.3,.38,.44,.95,.44,1.69v3.39c0,.89,.03,1.55,.09,1.99h-2c-.17-.32-.26-.78-.26-1.4v-3.52c0-.75-.11-1.24-.31-1.49-.21-.25-.67-.37-1.38-.37h-.74v6.78h-2.17Zm2.17-13.77v5.18h.56c.85,0,1.39-.15,1.62-.45,.22-.3,.34-1.04,.34-2.2s-.08-1.86-.23-2.13c-.15-.27-.57-.4-1.25-.4h-1.04Z"/>
          <path class="cls-1" d="M207.76,71.74v-15.58h2.17v15.58h-2.17Z"/>
          <path class="cls-1" d="M211.41,71.74v-15.58h3.02l2.58,12.95v-12.95h2.04v15.58h-3.15l-2.58-13.3v13.3h-1.91Z"/>
          <path class="cls-1" d="M155.56,93.33v-15.58h5.9v1.81h-3.73v4.88h3.51v1.81h-3.51v5.27h3.73v1.81h-5.9Z"/>
          <path class="cls-1" d="M162.58,93.33v-15.58h3.02l2.58,12.95v-12.95h2.04v15.58h-3.15l-2.58-13.3v13.3h-1.91Z"/>
          <path class="cls-1" d="M171.34,79.56v-1.81h7.38v1.81h-2.6v13.77h-2.17v-13.77h-2.6Z"/>
          <path class="cls-1" d="M179.84,93.33v-15.58h5.9v1.81h-3.73v4.88h3.51v1.81h-3.51v5.27h3.73v1.81h-5.9Z"/>
          <path class="cls-1" d="M186.85,93.33v-15.58h3.36c1.53,0,2.51,.28,2.93,.84,.38,.5,.56,1.64,.56,3.41,0,1.11-.12,1.89-.37,2.35-.28,.53-.84,.93-1.69,1.19v.04c.72,.07,1.23,.3,1.53,.68,.3,.38,.44,.95,.44,1.69v3.39c0,.89,.03,1.55,.09,1.99h-2c-.17-.32-.26-.78-.26-1.4v-3.52c0-.75-.1-1.24-.31-1.49-.21-.25-.67-.37-1.38-.37h-.74v6.78h-2.17Zm2.17-13.77v5.18h.56c.85,0,1.39-.15,1.62-.45,.22-.3,.34-1.04,.34-2.2s-.08-1.86-.23-2.13c-.15-.27-.57-.4-1.25-.4h-1.04Z"/>
          <path class="cls-1" d="M194.76,79.56v-1.81h7.38v1.81h-2.6v13.77h-2.17v-13.77h-2.6Z"/>
          <path class="cls-1" d="M201.65,93.33l3.45-15.58h2.52l3.19,15.58h-2.17l-.72-3.97h-3.38l-.72,3.97h-2.17Zm4.58-13.3l-1.37,7.51h2.75l-1.34-7.51h-.04Z"/>
          <path class="cls-1" d="M211.95,93.33v-15.58h2.17v15.58h-2.17Z"/>
          <path class="cls-1" d="M215.6,93.33v-15.58h3.02l2.58,12.95v-12.95h2.04v15.58h-3.15l-2.58-13.3v13.3h-1.91Z"/>
          <path class="cls-1" d="M224.77,93.33v-15.58h3.45l2,11.87h.04l2-11.87h3.36v15.58h-2.04v-14.03l-2.24,14.03h-2.2l-2.46-14.03v14.03h-1.91Z"/>
          <path class="cls-1" d="M237.13,93.33v-15.58h5.9v1.81h-3.73v4.88h3.51v1.81h-3.51v5.27h3.73v1.81h-5.9Z"/>
          <path class="cls-1" d="M244.15,93.33v-15.58h3.02l2.58,12.95v-12.95h2.04v15.58h-3.15l-2.58-13.3v13.3h-1.91Z"/>
          <path class="cls-1" d="M252.91,79.56v-1.81h7.38v1.81h-2.6v13.77h-2.17v-13.77h-2.6Z"/>
        </g>
        <g>
          <path class="cls-3" d="M121.27,58.54v5.69c0,1.73-1.78,3.13-3.98,3.13s-3.98-1.4-3.98-3.13v-29.56h-3.92v29.56c0,3.08,2.53,5.66,5.94,6.39v22.71h3.92v-22.71c3.41-.73,5.94-3.31,5.94-6.39v-29.56h-3.92v23.87Z"/>
          <path class="cls-3" d="M95.09,34.67v3.87h6.51v48.2c0,1.83-1.78,3.32-3.98,3.32s-3.98-1.49-3.98-3.32v-17.24h-3.92v17.24c0,3.64,3.54,6.59,7.9,6.59s7.9-2.95,7.9-6.59V34.67h-10.43Z"/>
          <path class="cls-3" d="M143.85,40.1c0-1.55-.8-5.43-4.97-5.43-1.95,0-4.3,1-6.25,2.65v-2.65h-3.92v58.66h3.92v-23.02c10.08,0,11.27-4.72,11.27-6.09,0-.04,0-.09,0-.13v-24h-.06Zm-3.86,4.79v18.38c0,1.33-1.49,3.18-7.36,3.18v-21.56c0-3.79,3.68-6.87,5.71-6.87,1.2,0,1.55,1.07,1.65,2.72,.06,1.15,0,2.59,0,4.15Z"/>
        </g>
      </g>
    </g>
  </g>
</svg>