<?xml version="1.0" encoding="UTF-8"?>
<svg id="_레이어_2" data-name="레이어 2" xmlns="http://www.w3.org/2000/svg" viewBox="0 0 350 128">
  <defs>
    <style>
      .cls-1 {
        fill: #040000;
      }

      .cls-2 {
        fill: #ea521a;
      }

      .cls-3 {
        fill: none;
      }
    </style>
  </defs>
  <g id="_레이어_1-2" data-name="레이어 1">
    <g>
      <rect class="cls-3" width="350" height="128"/>
      <g>
        <g>
          <path class="cls-1" d="M134.2,82.34h1.65v6.12h3.66v1.39h-5.31v-7.5Z"/>
          <path class="cls-1" d="M142.07,83.57h-1.49v-1.23h1.49v1.23Zm-1.49,.84h1.49v5.43h-1.49v-5.43Z"/>
          <path class="cls-1" d="M143.85,85.41h-.89v-1h.89v-.42c0-.5,.16-.9,.47-1.2,.31-.3,.76-.45,1.35-.45,.11,0,.27,0,.48,.02,.14,.01,.24,.02,.3,.02v1.11c-.18-.02-.36-.03-.55-.03-.2,0-.35,.05-.44,.14-.09,.09-.13,.25-.13,.48v.33h1.03v1h-1.03v4.44h-1.49v-4.44Z"/>
          <path class="cls-1" d="M149.13,84.42h1.09v1h-1.09v2.69c0,.25,.04,.42,.13,.5,.08,.08,.25,.13,.5,.13,.17,0,.32-.01,.46-.04v1.17c-.21,.04-.5,.05-.87,.05-.25,0-.48-.02-.68-.05-.2-.03-.38-.1-.54-.19-.16-.09-.28-.23-.37-.4-.09-.17-.13-.39-.13-.65v-3.21h-.9v-1h.9v-1.63h1.49v1.63Z"/>
          <path class="cls-1" d="M155.22,84.42h1.09v1h-1.09v2.69c0,.25,.04,.42,.13,.5,.08,.08,.25,.13,.5,.13,.17,0,.32-.01,.46-.04v1.17c-.21,.04-.5,.05-.87,.05-.25,0-.48-.02-.68-.05-.2-.03-.38-.1-.54-.19-.16-.09-.28-.23-.37-.4-.09-.17-.13-.39-.13-.65v-3.21h-.9v-1h.9v-1.63h1.49v1.63Z"/>
          <path class="cls-1" d="M157.41,85.05c.51-.52,1.19-.78,2.04-.78s1.54,.26,2.05,.78c.51,.52,.77,1.22,.77,2.09s-.26,1.55-.77,2.08c-.51,.52-1.19,.78-2.05,.78s-1.53-.26-2.04-.78c-.51-.52-.77-1.21-.77-2.08s.26-1.56,.77-2.09Zm.79,2.74c.05,.2,.12,.39,.22,.55,.1,.16,.24,.29,.41,.39,.17,.09,.38,.14,.61,.14s.45-.05,.63-.14c.17-.09,.31-.22,.41-.39,.1-.16,.18-.35,.22-.55,.05-.2,.07-.42,.07-.65s-.02-.45-.07-.66c-.05-.21-.12-.39-.22-.56-.1-.16-.24-.29-.41-.39-.17-.09-.38-.14-.63-.14s-.44,.05-.61,.14c-.17,.09-.31,.22-.41,.39-.1,.16-.18,.35-.22,.56-.05,.21-.07,.43-.07,.66s.02,.45,.07,.65Z"/>
          <path class="cls-1" d="M165.62,82.34h1.49v2.73h.02c.18-.27,.42-.47,.73-.6,.31-.14,.64-.2,.99-.2,.28,0,.55,.06,.82,.17,.27,.12,.51,.29,.73,.53,.22,.23,.39,.53,.51,.9,.13,.36,.19,.79,.19,1.26s-.06,.9-.19,1.27c-.13,.37-.3,.67-.51,.9-.22,.23-.46,.41-.73,.53-.27,.12-.54,.17-.82,.17-.42,0-.78-.07-1.09-.2-.31-.14-.54-.35-.69-.64h-.02v.69h-1.42v-7.5Zm3.66,3.55c-.22-.33-.53-.5-.95-.5s-.73,.17-.95,.5c-.22,.33-.33,.75-.33,1.25s.11,.9,.33,1.24c.22,.33,.53,.5,.95,.5s.73-.17,.95-.5c.22-.33,.33-.74,.33-1.24s-.11-.91-.33-1.25Z"/>
          <path class="cls-1" d="M173.68,87.5c.02,.47,.14,.82,.37,1.04,.22,.22,.55,.34,.97,.34,.29,0,.54-.07,.77-.22,.22-.14,.36-.31,.41-.49h1.31c-.2,.62-.52,1.08-.95,1.38-.43,.3-.96,.45-1.59,.45-.42,0-.8-.07-1.15-.2-.34-.14-.64-.33-.88-.59-.24-.26-.43-.56-.56-.91-.13-.35-.19-.74-.19-1.15s.07-.78,.2-1.14c.13-.35,.32-.66,.57-.91,.25-.26,.54-.46,.88-.6,.34-.14,.72-.22,1.12-.22,.43,0,.81,.08,1.14,.24,.33,.16,.61,.37,.83,.65,.22,.27,.39,.59,.5,.95,.12,.36,.17,.74,.17,1.14,0,.03,0,.07-.01,.13v.14h-3.92Zm2.43-.95c-.07-.39-.2-.68-.38-.87-.19-.19-.45-.28-.8-.28-.22,0-.42,.04-.57,.12-.16,.08-.29,.18-.38,.29s-.17,.24-.21,.37c-.04,.13-.07,.25-.07,.37h2.43Z"/>
          <path class="cls-1" d="M180.96,84.42h1.41v.74h.02c.2-.28,.44-.5,.72-.65,.28-.15,.6-.23,.94-.23,.36,0,.68,.07,.96,.22s.49,.37,.63,.68c.18-.26,.4-.47,.68-.65,.28-.17,.6-.26,.96-.26,.62,0,1.1,.16,1.46,.47,.35,.31,.53,.8,.53,1.48v3.64h-1.49v-3.08c0-.22,0-.4-.03-.55s-.06-.28-.12-.4c-.06-.12-.15-.21-.28-.28-.13-.07-.29-.1-.49-.1s-.37,.04-.5,.12c-.13,.08-.24,.18-.31,.3-.07,.13-.12,.27-.15,.43-.03,.16-.04,.33-.04,.53v3.03h-1.49v-3.05c0-.23,0-.42-.02-.57-.01-.15-.05-.28-.11-.4-.06-.12-.15-.21-.27-.28-.12-.07-.29-.11-.5-.11-.09,0-.19,.02-.3,.05-.11,.04-.22,.1-.33,.19-.1,.09-.19,.22-.27,.39-.07,.17-.11,.38-.11,.62v3.15h-1.49v-5.43Z"/>
          <path class="cls-1" d="M190.98,85.05c.51-.52,1.19-.78,2.04-.78s1.54,.26,2.05,.78c.51,.52,.77,1.22,.77,2.09s-.26,1.55-.77,2.08c-.51,.52-1.19,.78-2.05,.78s-1.53-.26-2.04-.78c-.51-.52-.77-1.21-.77-2.08s.26-1.56,.77-2.09Zm.79,2.74c.05,.2,.12,.39,.22,.55,.1,.16,.24,.29,.41,.39,.17,.09,.38,.14,.61,.14s.45-.05,.63-.14c.17-.09,.31-.22,.41-.39,.1-.16,.18-.35,.22-.55,.05-.2,.07-.42,.07-.65s-.02-.45-.07-.66c-.05-.21-.12-.39-.22-.56-.1-.16-.24-.29-.41-.39-.17-.09-.38-.14-.63-.14s-.44,.05-.61,.14c-.17,.09-.31,.22-.41,.39-.1,.16-.18,.35-.22,.56-.05,.21-.07,.43-.07,.66s.02,.45,.07,.65Z"/>
          <path class="cls-1" d="M199.91,89.85h-1.66l-1.86-5.43h1.57l1.15,3.71h.02l1.15-3.71h1.48l-1.84,5.43Z"/>
          <path class="cls-1" d="M203.83,87.5c.02,.47,.14,.82,.37,1.04,.22,.22,.55,.34,.97,.34,.29,0,.54-.07,.77-.22,.22-.14,.36-.31,.41-.49h1.31c-.2,.62-.52,1.08-.95,1.38-.43,.3-.96,.45-1.59,.45-.42,0-.8-.07-1.15-.2-.34-.14-.64-.33-.88-.59-.24-.26-.43-.56-.56-.91-.13-.35-.19-.74-.19-1.15s.07-.78,.2-1.14c.13-.35,.32-.66,.57-.91,.25-.26,.54-.46,.88-.6,.34-.14,.72-.22,1.12-.22,.43,0,.81,.08,1.14,.24,.33,.16,.61,.37,.83,.65,.22,.27,.39,.59,.5,.95,.12,.36,.17,.74,.17,1.14,0,.03,0,.07-.01,.13v.14h-3.92Zm2.43-.95c-.07-.39-.2-.68-.38-.87-.19-.19-.45-.28-.8-.28-.22,0-.42,.04-.57,.12-.16,.08-.29,.18-.38,.29-.1,.12-.17,.24-.21,.37-.04,.13-.07,.25-.07,.37h2.43Z"/>
          <path class="cls-1" d="M212.85,89.16h-.02c-.17,.29-.39,.5-.68,.64-.28,.14-.61,.2-.97,.2-.39,0-.74-.08-1.05-.24-.31-.16-.57-.37-.77-.65-.21-.27-.36-.58-.46-.93-.1-.35-.15-.71-.15-1.1s.05-.73,.15-1.06c.1-.34,.25-.64,.46-.9,.2-.27,.46-.47,.76-.63,.3-.15,.65-.23,1.04-.23,.33,0,.64,.07,.93,.21,.29,.14,.52,.34,.68,.6h.02v-2.73h1.49v7.5h-1.42v-.69Zm-.09-2.7c-.05-.2-.12-.39-.22-.55-.1-.16-.23-.29-.4-.38-.17-.09-.37-.14-.6-.14s-.44,.05-.61,.14c-.17,.09-.3,.22-.41,.38-.11,.16-.18,.35-.23,.56-.05,.21-.07,.43-.07,.66,0,.22,.03,.43,.08,.64,.05,.21,.13,.39,.24,.56,.11,.17,.25,.3,.41,.4,.16,.1,.36,.15,.58,.15,.24,0,.44-.05,.6-.14,.16-.09,.3-.22,.4-.39,.1-.16,.17-.35,.22-.56,.04-.21,.06-.43,.06-.67s-.02-.46-.07-.66Z"/>
        </g>
        <g>
          <rect class="cls-1" x="183.89" y="52.13" width="7.03" height="7.03"/>
          <rect class="cls-1" x="183.89" y="65.27" width="7.03" height="7.03"/>
          <rect class="cls-1" x="218.55" y="50.15" width="7.93" height="24.13"/>
          <polygon class="cls-1" points="214.31 74.28 214.31 68.63 204.6 68.63 204.6 50.15 196.67 50.15 196.67 74.28 214.31 74.28"/>
          <polygon class="cls-1" points="178.01 74.28 178.01 68.63 167.33 68.63 167.33 64.71 177.18 64.71 177.18 59.06 167.33 59.06 167.33 55.79 178.01 55.79 178.01 50.15 159.4 50.15 159.4 74.28 178.01 74.28"/>
          <polygon class="cls-1" points="272.08 50.15 251.89 50.15 251.89 55.79 258.02 55.79 258.02 74.28 265.95 74.28 265.95 55.79 272.08 55.79 272.08 50.15"/>
          <polygon class="cls-1" points="230.44 50.15 230.44 74.28 238.36 74.28 238.36 64.71 247.59 64.71 247.59 59.06 238.36 59.06 238.36 55.79 248.15 55.79 248.15 50.15 230.44 50.15"/>
          <path class="cls-1" d="M149.33,74.28c3.89,0,7.04-3.15,7.04-7.04h0c0-2.68-1.5-5.02-3.71-6.21,1.49-1.1,2.46-2.86,2.46-4.85h0c0-3.33-2.7-6.03-6.03-6.03h-14.89v24.13h15.13Zm-7.21-18.49h3.95c1.09,0,1.98,.88,1.98,1.98s-.88,1.98-1.98,1.98h-3.95v-3.95Zm4.38,12.73h-4.38v-4.39h4.38c1.21,0,2.19,.98,2.19,2.19s-.98,2.19-2.19,2.19Z"/>
        </g>
        <path class="cls-2" d="M98.78,38l-20.86,12.04v24.08l20.86,12.04,20.86-12.04v-24.08l-20.86-12.04Zm0,39.18l-13.07-7.55v-5.77l13.07,7.55v5.77Zm6.53-8.43l-13.07-7.55v-5.77l13.07,7.55v5.77Zm6.53-8.43l-13.07-7.55v-5.77l13.07,7.55v5.77Z"/>
      </g>
    </g>
  </g>
</svg>