<?xml version="1.0" encoding="UTF-8"?>
<svg id="_레이어_2" data-name="레이어 2" xmlns="http://www.w3.org/2000/svg" viewBox="0 0 350 128">
  <defs>
    <style>
      .cls-1 {
        fill: #f1592a;
      }

      .cls-2 {
        fill: #b4b4b4;
      }

      .cls-3 {
        fill: #969696;
      }

      .cls-4 {
        fill: none;
      }
    </style>
  </defs>
  <g id="_레이어_1-2" data-name="레이어 1">
    <g>
      <rect class="cls-4" width="350" height="128"/>
      <g>
        <path class="cls-1" d="M147.04,68.71c-.27-.38-1.06-.93-1.7-1.15-4.37-1.48-6.27-6.01-6.27-6.01,0,0-1.57-2.72-2.48-6.32s-1.45-7.46-1.45-7.46c-.14-1.42-1.34-2.53-2.8-2.53-1.55,0-2.81,1.26-2.81,2.81,0,0,.07,4.67,.62,7.67,0,0-3.52,3.33-7.68,3.41-1.31-7.53-1.41-17.49-1.41-17.49,0-.15-.01-.29-.04-.43,0-.02,0-.04,0-.04-.23-1.52-1.64-2.57-3.16-2.34-.99,.15-1.78,.81-2.15,1.67,0,0-.03,.1-.09,.29,0,.02-.01,.03-.02,.05-.41,1.33-2.06,6.41-4.83,12.19-.98,2.05-2.02,3.97-2.99,5.65l-8.02-12.78c-.84-1.46-2.42-2.45-4.23-2.45-2.7,0-4.89,2.19-4.89,4.89,0,1.29,.5,2.47,1.32,3.34l11.55,13.33c.05,.06,.1,.12,.15,.18-.14,.23-1.54,2.47-5.14,6.48,0,0-3.66,4.16-8.38,7.06-1.29,.79-2.21,2.66-2.4,3.87-.48,3.13,1.67,6.05,4.8,6.52,2.24,.34,3.68-.5,5.66-2.22,9.69-8.44,15.14-21.06,15.14-21.06,.85-1.68,1.64-3.52,2.35-5.41v.36s.28,5.97,1.62,10.57c.31,1.08,.44,1.67,.71,2.39,0,0,1.91,5.29,4.12,7.85,2.21,2.56,4.53,5.01,7.33,5.01s4.93-2.21,4.93-4.93c0-1.29-.45-2.4-1.15-3.19-.3-.34-.79-.79-1.71-1.26-1.41-.72-2.21-1.47-3.6-3.15-1.39-1.68-2.74-5.12-2.74-5.12-.02-.05-.03-.1-.05-.15-.03-.13-.07-.25-.11-.38-.03-.13-.07-.25-.11-.37,0,0,5.3-1.5,7.72-3.09,2.45,6.09,6.05,8.47,6.93,9.04,.9,.58,2.66,1.6,3.99,1.6,2.33,0,4.22-1.89,4.22-4.22,0-1.31-.34-2.08-.77-2.69Z"/>
        <g>
          <path class="cls-2" d="M155.14,71.2c0-.44,.1-.75,.32-.92,.21-.17,.49-.25,.85-.25h4.67c.29,0,.53,.05,.72,.16,.19,.11,.28,.32,.28,.64s-.1,.53-.28,.64c-.19,.11-.43,.16-.72,.16h-3.84v1.89h3.37c.26,0,.48,.05,.66,.15,.18,.1,.27,.3,.27,.61s-.09,.51-.27,.61c-.18,.1-.4,.15-.66,.15h-3.37v2.11h3.94c.29,0,.53,.05,.72,.16,.19,.11,.28,.32,.28,.64s-.1,.53-.28,.64c-.19,.11-.43,.16-.72,.16h-4.76c-.36,0-.64-.08-.85-.25-.21-.17-.32-.47-.32-.92v-6.4Z"/>
          <path class="cls-2" d="M163.36,71.05c0-.41,.1-.71,.3-.89,.2-.18,.52-.27,.95-.27,.21,0,.4,.04,.57,.12,.17,.08,.31,.21,.42,.4l3.48,5.61h.02v-5.18c0-.32,.08-.56,.25-.72,.17-.16,.4-.24,.7-.24s.53,.08,.7,.24c.17,.16,.25,.4,.25,.72v6.85c0,.4-.09,.7-.27,.92-.18,.21-.48,.32-.9,.32-.16,0-.3,0-.41-.02s-.2-.05-.28-.09c-.08-.04-.15-.1-.21-.17-.06-.07-.12-.15-.19-.25l-3.46-5.46h-.02v5.03c0,.32-.08,.56-.25,.72-.17,.16-.4,.24-.7,.24s-.53-.08-.7-.24c-.17-.16-.25-.4-.25-.72v-6.92Z"/>
          <path class="cls-2" d="M174.96,71.71h-1.88c-.28,0-.53-.07-.73-.21-.2-.14-.3-.35-.3-.62s.1-.48,.3-.62c.2-.14,.44-.21,.73-.21h5.75c.28,0,.53,.07,.73,.21,.2,.14,.3,.35,.3,.62s-.1,.48-.3,.62c-.2,.14-.44,.21-.73,.21h-1.88v6.22c0,.3-.09,.54-.27,.72-.18,.18-.42,.27-.73,.27s-.55-.09-.73-.27c-.18-.18-.27-.42-.27-.72v-6.22Z"/>
          <path class="cls-2" d="M180.97,71.2c0-.44,.1-.75,.32-.92s.49-.25,.85-.25h4.67c.29,0,.53,.05,.72,.16,.19,.11,.28,.32,.28,.64s-.1,.53-.28,.64c-.19,.11-.43,.16-.72,.16h-3.84v1.89h3.37c.26,0,.48,.05,.66,.15,.18,.1,.27,.3,.27,.61s-.09,.51-.27,.61c-.18,.1-.4,.15-.66,.15h-3.37v2.11h3.94c.29,0,.53,.05,.72,.16,.19,.11,.28,.32,.28,.64s-.1,.53-.28,.64c-.19,.11-.43,.16-.72,.16h-4.76c-.36,0-.64-.08-.85-.25-.21-.17-.32-.47-.32-.92v-6.4Z"/>
          <path class="cls-2" d="M189.23,71.2c0-.44,.11-.75,.32-.92,.21-.17,.49-.25,.85-.25h3.31c.59,0,1.08,.07,1.47,.22,.39,.15,.7,.34,.92,.57,.23,.23,.38,.5,.47,.78,.09,.29,.13,.57,.13,.85,0,.23-.03,.47-.1,.7-.07,.23-.17,.44-.3,.62-.13,.19-.29,.35-.47,.48-.19,.14-.4,.23-.63,.29v.02c.25,.04,.45,.11,.61,.22,.16,.11,.28,.24,.37,.39,.09,.16,.15,.34,.18,.53,.03,.2,.04,.41,.04,.62,0,.25,.01,.47,.04,.65,.03,.18,.06,.34,.09,.47,.03,.13,.06,.25,.09,.36,.03,.11,.04,.21,.04,.32,0,.23-.1,.42-.29,.56-.19,.14-.41,.21-.64,.21-.27,0-.49-.06-.65-.17-.16-.11-.27-.25-.35-.4-.08-.15-.13-.31-.15-.47-.02-.16-.03-.28-.03-.37,0-.38-.02-.71-.06-.98-.04-.27-.11-.49-.22-.67-.11-.17-.24-.3-.42-.38-.17-.08-.4-.12-.67-.12h-1.96v2.56c0,.3-.09,.54-.27,.72-.18,.18-.42,.27-.73,.27s-.55-.09-.73-.27c-.18-.18-.27-.42-.27-.72v-6.73Zm1.99,2.72h1.99c.19,0,.37-.02,.55-.05,.18-.03,.34-.09,.48-.18,.14-.08,.25-.2,.34-.36,.08-.15,.13-.35,.13-.59s-.03-.43-.1-.58c-.07-.15-.17-.27-.29-.36-.13-.09-.28-.15-.45-.19s-.38-.05-.59-.05h-2.05v2.35Z"/>
          <path class="cls-2" d="M200.13,71.71h-1.88c-.28,0-.53-.07-.73-.21-.2-.14-.3-.35-.3-.62s.1-.48,.3-.62c.2-.14,.44-.21,.73-.21h5.75c.28,0,.53,.07,.73,.21,.2,.14,.3,.35,.3,.62s-.1,.48-.3,.62c-.2,.14-.44,.21-.73,.21h-1.88v6.22c0,.3-.09,.54-.27,.72-.18,.18-.42,.27-.73,.27s-.55-.09-.73-.27c-.18-.18-.27-.42-.27-.72v-6.22Z"/>
          <path class="cls-2" d="M207.38,70.49c.09-.23,.21-.38,.37-.47,.16-.09,.36-.13,.6-.13h.47c.23,0,.43,.04,.62,.13,.19,.09,.34,.29,.45,.59l2.4,6.68c.04,.1,.08,.22,.13,.37,.04,.15,.07,.28,.07,.39,0,.24-.09,.45-.27,.62-.18,.17-.4,.25-.66,.25-.22,0-.4-.04-.56-.13-.15-.09-.27-.22-.34-.42l-.51-1.45h-3.2l-.52,1.45c-.06,.19-.17,.33-.32,.42-.15,.08-.34,.13-.57,.13-.27,0-.5-.08-.67-.24-.17-.16-.25-.37-.25-.64,0-.11,.02-.24,.07-.39,.04-.15,.09-.27,.13-.37l2.57-6.8Zm1.2,1.55h-.02l-1.18,3.5h2.33l-1.13-3.5Z"/>
          <path class="cls-2" d="M213.51,70.88c0-.3,.09-.54,.27-.72,.18-.18,.42-.27,.73-.27s.55,.09,.73,.27c.18,.18,.27,.42,.27,.72v7.06c0,.3-.09,.54-.27,.72-.18,.18-.42,.27-.73,.27s-.55-.09-.73-.27c-.18-.18-.27-.42-.27-.72v-7.06Z"/>
          <path class="cls-2" d="M217.3,71.05c0-.41,.1-.71,.3-.89,.2-.18,.52-.27,.95-.27,.21,0,.4,.04,.57,.12,.17,.08,.31,.21,.42,.4l3.48,5.61h.02v-5.18c0-.32,.08-.56,.25-.72,.17-.16,.4-.24,.7-.24s.53,.08,.7,.24c.17,.16,.25,.4,.25,.72v6.85c0,.4-.09,.7-.27,.92-.18,.21-.48,.32-.9,.32-.16,0-.3,0-.41-.02-.11-.02-.2-.05-.28-.09-.08-.04-.15-.1-.21-.17-.06-.07-.12-.15-.19-.25l-3.46-5.46h-.02v5.03c0,.32-.09,.56-.25,.72-.17,.16-.4,.24-.7,.24s-.53-.08-.7-.24c-.17-.16-.25-.4-.25-.72v-6.92Z"/>
          <path class="cls-2" d="M226.74,70.87c0-.2,.03-.37,.09-.49,.06-.13,.14-.22,.25-.3,.11-.07,.22-.12,.35-.15,.13-.03,.26-.04,.39-.04h.58c.31,0,.54,.07,.71,.2,.17,.13,.3,.37,.41,.71l1.73,5.6h.02l1.71-5.6c.11-.34,.24-.58,.41-.71,.17-.13,.4-.2,.71-.2h.56c.13,0,.26,.01,.39,.04,.13,.03,.25,.08,.35,.15,.11,.07,.19,.17,.25,.3,.06,.13,.09,.29,.09,.49v7.09c0,.25-.07,.47-.2,.67-.13,.2-.36,.3-.69,.3s-.55-.1-.68-.3-.2-.42-.2-.67v-5.41h-.02l-1.85,5.79c-.06,.21-.17,.36-.32,.45s-.32,.13-.53,.13-.39-.04-.53-.13-.25-.24-.32-.45l-1.85-5.79h-.02v5.41c0,.25-.07,.47-.2,.67-.13,.2-.36,.3-.68,.3s-.55-.1-.69-.3c-.13-.2-.2-.42-.2-.67v-7.09Z"/>
          <path class="cls-2" d="M237.59,71.2c0-.44,.11-.75,.32-.92,.21-.17,.49-.25,.85-.25h4.67c.29,0,.53,.05,.72,.16,.19,.11,.28,.32,.28,.64s-.1,.53-.28,.64c-.19,.11-.43,.16-.72,.16h-3.84v1.89h3.37c.26,0,.48,.05,.66,.15,.18,.1,.27,.3,.27,.61s-.09,.51-.27,.61c-.18,.1-.4,.15-.66,.15h-3.37v2.11h3.94c.29,0,.53,.05,.72,.16,.19,.11,.28,.32,.28,.64s-.1,.53-.28,.64c-.19,.11-.43,.16-.72,.16h-4.76c-.36,0-.64-.08-.85-.25-.21-.17-.32-.47-.32-.92v-6.4Z"/>
          <path class="cls-2" d="M245.8,71.05c0-.41,.1-.71,.3-.89,.2-.18,.52-.27,.95-.27,.21,0,.4,.04,.57,.12,.17,.08,.31,.21,.42,.4l3.48,5.61h.02v-5.18c0-.32,.08-.56,.25-.72,.17-.16,.4-.24,.7-.24s.53,.08,.7,.24c.17,.16,.25,.4,.25,.72v6.85c0,.4-.09,.7-.27,.92-.18,.21-.48,.32-.9,.32-.16,0-.3,0-.41-.02-.11-.02-.2-.05-.28-.09-.08-.04-.15-.1-.21-.17-.06-.07-.12-.15-.19-.25l-3.46-5.46h-.02v5.03c0,.32-.09,.56-.25,.72-.17,.16-.4,.24-.7,.24s-.53-.08-.7-.24c-.17-.16-.25-.4-.25-.72v-6.92Z"/>
          <path class="cls-2" d="M257.41,71.71h-1.88c-.28,0-.53-.07-.73-.21-.2-.14-.3-.35-.3-.62s.1-.48,.3-.62c.2-.14,.44-.21,.73-.21h5.75c.28,0,.53,.07,.73,.21,.2,.14,.3,.35,.3,.62s-.1,.48-.3,.62c-.2,.14-.44,.21-.73,.21h-1.88v6.22c0,.3-.09,.54-.27,.72-.18,.18-.42,.27-.73,.27s-.55-.09-.73-.27c-.18-.18-.27-.42-.27-.72v-6.22Z"/>
        </g>
        <g>
          <polygon class="cls-3" points="159.34 57.36 157.24 54.24 153.67 54.24 157.85 60.01 157.85 65.58 160.73 65.58 160.73 60.04 164.78 54.24 161.32 54.24 159.34 57.36"/>
          <path class="cls-3" d="M172.94,60.92c0,1.52-.71,2.27-2.13,2.27s-2.13-.76-2.13-2.27v-6.67h-2.75v7.52c0,1.31,.39,2.2,1.18,2.92,.79,.72,2.24,1.2,3.68,1.2s2.92-.48,3.71-1.2c.79-.72,1.18-1.61,1.18-2.92v-7.52h-2.75v6.67Z"/>
          <path class="cls-3" d="M211.6,60.92c0,1.52-.71,2.27-2.13,2.27s-2.13-.76-2.13-2.27v-6.67h-2.75v7.52c0,1.31,.39,2.2,1.18,2.92,.79,.72,2.24,1.2,3.68,1.2s2.92-.48,3.71-1.2c.79-.72,1.18-1.61,1.18-2.92v-7.52h-2.75v6.67Z"/>
          <polygon class="cls-3" points="178.06 65.58 184.51 65.58 184.51 63.06 180.86 63.06 180.86 60.9 184.25 60.9 184.25 58.63 180.86 58.63 180.86 56.69 184.51 56.69 184.51 54.24 178.06 54.24 178.06 65.58"/>
          <polygon class="cls-3" points="199.46 58.54 195.04 58.54 195.04 54.24 192.15 54.24 192.15 65.58 195.04 65.58 195.04 60.76 199.46 60.76 199.46 65.58 202.35 65.58 202.35 54.24 199.46 54.24 199.46 58.54"/>
          <path class="cls-3" d="M223.29,54.24h-3.25l-4.3,11.34h3.01l.79-2.08h4.19l.73,2.08h3.09l-4.26-11.34Zm-3.04,7.05l1.41-3.71,1.28,3.71h-2.69Z"/>
        </g>
      </g>
    </g>
  </g>
</svg>