<?xml version="1.0" encoding="UTF-8"?>
<svg id="_레이어_2" data-name="레이어 2" xmlns="http://www.w3.org/2000/svg" viewBox="0 0 350 128">
  <defs>
    <style>
      .cls-1 {
        fill: #fff;
      }

      .cls-2 {
        fill: #de3322;
      }

      .cls-3 {
        fill: none;
      }
    </style>
  </defs>
  <g id="_레이어_1-2" data-name="레이어 1">
    <g>
      <rect class="cls-3" width="350" height="128"/>
      <g>
        <rect class="cls-2" x="88.86" y="36.6" width="54.81" height="54.81"/>
        <path class="cls-3" d="M129.19,47.8c-4.01,0-7.26,3.25-7.26,7.26s3.25,7.26,7.26,7.26c2.23,0,4.22-1.01,5.55-2.59v-9.34c-1.33-1.58-3.32-2.59-5.55-2.59Z"/>
        <path class="cls-1" d="M129.19,62.31c-4.01,0-7.26-3.25-7.26-7.26s3.25-7.26,7.26-7.26c2.23,0,4.22,1.01,5.55,2.59v-2.76c-1.55-1.16-3.47-1.84-5.55-1.84-5.12,0-9.28,4.15-9.28,9.28s4.15,9.28,9.28,9.28c2.08,0,4-.69,5.55-1.85v-2.76c-1.33,1.58-3.32,2.59-5.55,2.59Z"/>
        <rect class="cls-1" x="97.86" y="64.8" width="1.99" height="17.61"/>
        <polygon class="cls-1" points="132.69 68.69 132.69 78.11 99.84 47.58 97.9 45.78 97.86 45.78 97.86 48.45 97.86 59.79 99.84 59.79 99.84 50.3 132.69 80.83 134.68 82.68 134.68 79.96 134.68 68.69 132.69 68.69"/>
        <rect class="cls-1" x="98.71" y="64.8" width="10.22" height="2.08"/>
        <rect class="cls-1" x="98.71" y="72.66" width="10.22" height="2.08"/>
        <g>
          <polygon class="cls-2" points="158.44 50.16 158.44 48.88 153.94 48.88 153.94 48.9 153.8 48.9 153.8 58.93 154.9 58.93 154.9 54.26 158.44 54.26 158.44 53.24 154.9 53.24 154.9 50.16 158.44 50.16"/>
          <polygon class="cls-2" points="158.87 67.55 158.87 66.27 154.01 66.27 154.01 66.29 153.85 66.29 153.85 76.32 155.05 76.32 155.05 71.65 158.47 71.65 158.47 70.62 155.05 70.62 155.05 67.55 158.87 67.55"/>
          <polygon class="cls-2" points="168.47 48.9 167.18 48.9 167.18 57.19 162.88 48.88 161.42 48.88 161.43 48.9 161.21 48.9 161.21 58.93 162.51 58.93 162.51 50.98 166.63 58.94 168.08 58.94 168.08 58.93 168.47 58.93 168.47 48.9"/>
          <polygon class="cls-2" points="168.47 66.29 167.18 66.29 167.18 74.57 162.88 66.27 161.42 66.27 161.43 66.29 161.21 66.29 161.21 76.32 162.51 76.32 162.51 68.37 166.63 76.33 168.08 76.33 168.08 76.32 168.47 76.32 168.47 66.29"/>
          <polygon class="cls-2" points="222.11 66.29 220.81 66.29 220.81 74.57 216.52 66.27 215.06 66.27 215.07 66.29 214.85 66.29 214.85 76.32 216.14 76.32 216.14 68.37 220.26 76.33 221.72 76.33 221.72 76.32 222.11 76.32 222.11 66.29"/>
          <polygon class="cls-2" points="252.14 66.29 250.85 66.29 250.85 74.57 246.55 66.27 245.1 66.27 245.1 66.29 244.89 66.29 244.89 76.32 246.18 76.32 246.18 68.37 250.3 76.33 251.76 76.33 251.76 76.32 252.14 76.32 252.14 66.29"/>
          <rect class="cls-2" x="154.25" y="75.2" width="4.54" height="1.12"/>
          <polygon class="cls-2" points="183.67 67.55 183.67 66.27 178.81 66.27 178.81 66.29 178.65 66.29 178.65 76.32 179.85 76.32 179.85 71.65 183.27 71.65 183.27 70.62 179.85 70.62 179.85 67.55 183.67 67.55"/>
          <rect class="cls-2" x="179.05" y="75.2" width="4.54" height="1.12"/>
          <polygon class="cls-2" points="242.55 67.55 242.55 66.27 237.68 66.27 237.68 66.29 237.53 66.29 237.53 76.32 238.72 76.32 238.72 71.65 242.14 71.65 242.14 70.62 238.72 70.62 238.72 67.55 242.55 67.55"/>
          <rect class="cls-2" x="237.92" y="75.2" width="4.54" height="1.12"/>
          <polygon class="cls-2" points="176.9 66.29 169.95 66.29 169.95 67.55 172.88 67.55 172.88 76.27 174.14 76.27 174.14 67.55 176.9 67.55 176.9 66.29"/>
          <polygon class="cls-2" points="200.19 66.29 193.24 66.29 193.24 67.55 196.16 67.55 196.16 76.27 197.43 76.27 197.43 67.55 200.19 67.55 200.19 66.29"/>
          <rect class="cls-2" x="210.92" y="66.29" width="1.43" height="9.91"/>
          <rect class="cls-2" x="256.34" y="66.48" width="1.45" height="9.72"/>
          <rect class="cls-2" x="253.75" y="66.29" width="7.38" height="1.2"/>
          <path class="cls-2" d="M192.72,76.21h-1.51l-1.46-3.19c-.11-.24-.22-.45-.34-.61-.12-.16-.24-.29-.37-.38-.13-.09-.28-.16-.43-.2-.16-.04-.33-.06-.53-.06h-.63v4.44h-1.33v-9.96h2.62c.57,0,1.06,.06,1.47,.19,.41,.13,.75,.31,1.01,.53,.26,.23,.46,.5,.58,.83,.12,.32,.18,.68,.18,1.07,0,.31-.04,.6-.13,.88-.09,.28-.22,.53-.4,.75-.18,.23-.4,.42-.66,.59-.26,.17-.56,.29-.9,.37,.27,.1,.51,.27,.7,.51,.19,.24,.39,.56,.59,.96l1.55,3.28Zm-2.14-7.22c0-.53-.16-.93-.49-1.2-.33-.26-.79-.4-1.38-.4h-1.26v3.29h1.08c.31,0,.6-.04,.85-.11,.25-.07,.47-.18,.64-.33,.18-.14,.32-.32,.41-.53,.1-.21,.15-.45,.15-.73Z"/>
          <path class="cls-2" d="M234.74,76.37h-1.34v-8.61l-3.04,8.61h-1.26l-3.02-8.61v8.61h-1.33v-10.13h2.12l2.86,8.44,2.89-8.44h2.12v10.13Z"/>
          <path class="cls-2" d="M209.36,76.35h-1.33l-1.09-2.87h-4.34l-1.02,2.87h-1.34l3.93-10.24h1.24l3.94,10.24Zm-2.81-3.95l-1.61-4.36c-.05-.14-.11-.37-.16-.69h-.03c-.05,.29-.1,.52-.17,.69l-1.59,4.36h3.55Z"/>
          <path class="cls-2" d="M177.84,57.62c-.06,.03-.12,.06-.19,.09-.55,.22-1.13,.33-1.75,.33-.45,0-.88-.08-1.29-.24-.41-.16-.76-.4-1.07-.73-.29-.32-.53-.72-.72-1.23-.19-.5-.28-1.1-.28-1.8s.08-1.25,.25-1.76c.17-.51,.4-.93,.7-1.26,.31-.34,.66-.59,1.06-.76,.39-.16,.84-.24,1.33-.24,.6,0,1.17,.1,1.69,.31,.09,.03,.17,.08,.26,.12v-1.28c-.1-.03-.2-.06-.3-.09-.52-.13-1.04-.19-1.57-.19-.72,0-1.37,.11-1.95,.34-.59,.23-1.09,.56-1.5,.99-.43,.44-.75,.99-.98,1.63-.23,.64-.34,1.38-.34,2.19,0,.86,.12,1.62,.35,2.27,.24,.65,.56,1.19,.98,1.61,.43,.43,.93,.75,1.51,.95,.58,.2,1.22,.3,1.93,.3,.37,0,.72-.03,1.03-.09,.3-.06,.59-.13,.85-.21v-1.25Z"/>
        </g>
      </g>
    </g>
  </g>
</svg>