<?xml version="1.0" encoding="UTF-8"?>
<svg id="_레이어_2" data-name="레이어 2" xmlns="http://www.w3.org/2000/svg" viewBox="0 0 350 128">
  <defs>
    <style>
      .cls-1 {
        fill: #ef3c32;
      }

      .cls-2 {
        fill: none;
      }
    </style>
  </defs>
  <g id="_레이어_1-2" data-name="레이어 1">
    <g>
      <rect class="cls-2" width="350" height="128"/>
      <g>
        <g>
          <polygon class="cls-1" points="143.42 40.39 139.9 40.39 139.9 71.56 153.44 71.56 153.44 68.04 143.42 68.04 143.42 40.39"/>
          <rect class="cls-1" x="205.35" y="40.39" width="3.52" height="31.17"/>
          <path class="cls-1" d="M125.57,40.39h-6.9v31.17h3.52v-12.46h3.38c5.16,0,9.35-4.19,9.35-9.35h0c0-5.16-4.19-9.35-9.35-9.35Zm-.03,15.18h-3.35v-11.66h3.35c3.22,0,5.83,2.61,5.83,5.83s-2.61,5.83-5.83,5.83Z"/>
          <path class="cls-1" d="M174.57,68.23h-4.81c-5.34,0-6.65-2.61-6.65-5.82h0c0-3.22,1.67-5.82,6.65-5.82h3.29v-3.52h0s-3.89,0-3.89,0c-3.35,0-6.06-1.97-6.06-4.67s2.71-5.11,6.06-5.11h5.41v-3.52h-6.58c-4.64,0-8.41,4.14-8.41,8.79,0,2.34,.85,4.77,2.85,6.34-2.16,1.7-3,4.43-3,7.51h0c0,5.16,1.84,9.34,9.34,9.34h5.79v-3.52Z"/>
          <path class="cls-1" d="M184.95,40.39h-3.52v31.17h3.52c7.51,0,13.6-6.98,13.6-15.58s-6.09-15.58-13.6-15.58Zm0,27.04v-22.92c5.56,0,10.08,5.13,10.08,11.46s-4.51,11.46-10.08,11.46Z"/>
          <path class="cls-1" d="M231.33,63.77c0-4.25-2.35-6.28-4.42-8.07l-.4-.35c-.69-.6-1.55-1.11-2.46-1.65-2.65-1.56-4.39-2.77-4.39-5.14,0-2.91,1.53-4.39,4.56-4.39,2.52,0,5.99,1.09,6.05,1.12h0s0-3.56,0-3.56c-1.39-.38-3.91-.97-6.05-.97-3.86,0-7.98,2.05-7.98,7.81,0,4.51,3.65,6.66,6.07,8.09,.77,.46,1.5,.88,1.95,1.28l.41,.36c1.95,1.68,3.23,2.79,3.23,5.48,0,2.98-2.6,4.31-5.17,4.31-3.34,0-6.63-1.64-6.67-1.65v3.72c1.54,.59,4.04,1.36,6.67,1.36,4.98,0,8.59-3.25,8.59-7.73Z"/>
        </g>
        <g>
          <polygon points="119.23 88.21 122.92 88.21 122.92 87.64 119.8 87.64 119.8 84.78 122.92 84.78 122.92 84.21 119.8 84.21 119.8 81.35 122.92 81.35 122.92 80.78 119.23 80.78 119.23 88.21"/>
          <polygon points="146.2 88.21 149.88 88.21 149.88 87.64 146.77 87.64 146.77 84.78 149.88 84.78 149.88 84.21 146.77 84.21 146.77 81.35 149.88 81.35 149.88 80.78 146.2 80.78 146.2 88.21"/>
          <polygon points="208.67 88.21 212.35 88.21 212.35 87.64 209.24 87.64 209.24 84.78 212.35 84.78 212.35 84.21 209.24 84.21 209.24 81.35 212.35 81.35 212.35 80.78 208.67 80.78 208.67 88.21"/>
          <polygon points="137.22 81.35 139.11 81.35 139.11 88.18 139.68 88.18 139.68 81.35 141.58 81.35 141.58 80.78 137.22 80.78 137.22 81.35"/>
          <polygon points="163.19 81.35 165.08 81.35 165.08 88.18 165.65 88.18 165.65 81.35 167.55 81.35 167.55 80.78 163.19 80.78 163.19 81.35"/>
          <polygon points="226.61 81.35 228.51 81.35 228.51 88.18 229.08 88.18 229.08 81.35 230.97 81.35 230.97 80.78 226.61 80.78 226.61 81.35"/>
          <rect x="181.55" y="80.78" width=".54" height="7.4"/>
          <path d="M174.05,80.73l-.27,.74-2.4,6.76h.54l.99-2.8h2.28l.99,2.8h.54l-2.4-6.76-.27-.74Zm-.95,4.17l.95-2.69,.95,2.69h-1.9Z"/>
          <polygon points="132.08 86.96 128.44 80.78 128 80.78 128 88.18 128.54 88.18 128.54 82 132.18 88.18 132.62 88.18 132.62 80.78 132.08 80.78 132.08 86.96"/>
          <polygon points="221.48 86.96 217.84 80.78 217.4 80.78 217.4 88.18 217.94 88.18 217.94 82 221.58 88.18 222.02 88.18 222.02 80.78 221.48 80.78 221.48 86.96"/>
          <polygon points="191.36 86.96 187.73 80.78 187.28 80.78 187.28 88.18 187.82 88.18 187.82 82 191.46 88.18 191.9 88.18 191.9 80.78 191.36 80.78 191.36 86.96"/>
          <polygon points="200.29 85.52 197.51 80.78 197.06 80.78 197.06 88.18 197.6 88.18 197.6 82 199.98 86.05 200.29 86.58 200.61 86.05 202.99 82 202.99 88.18 203.53 88.18 203.53 80.78 203.08 80.78 200.29 85.52"/>
          <path d="M159.06,83.23c0-1.35-1.09-2.44-2.44-2.44h-1.21s-.54,0-.54,0v7.4h.54v-2.51h1.21s.02,0,.03,0l1.62,2.51h.64l-1.67-2.59c1.05-.28,1.82-1.23,1.82-2.36Zm-2.44,1.9h-1.21v-3.81h1.21c1.05,0,1.9,.85,1.9,1.9s-.85,1.9-1.9,1.9Z"/>
        </g>
      </g>
    </g>
  </g>
</svg>