<?xml version="1.0" encoding="UTF-8"?>
<svg id="_레이어_2" data-name="레이어 2" xmlns="http://www.w3.org/2000/svg" viewBox="0 0 350 128">
  <defs>
    <style>
      .cls-1 {
        fill: none;
      }

      .cls-2 {
        fill-rule: evenodd;
      }
    </style>
  </defs>
  <g id="_레이어_1-2" data-name="레이어 1">
    <g>
      <rect class="cls-1" width="350" height="128"/>
      <path class="cls-2" d="M118.99,37.24c14.28,0,25.98,11.24,26.72,25.34h1.44c1.5,0,2.74,.51,3.7,1.54,.96,1.03,1.45,2.33,1.45,3.92v4.95c0,1.52-.44,2.82-1.33,3.9-.95,1.14-2.18,1.71-3.69,1.71h-5.88c-4.78,7.32-13.04,12.17-22.41,12.17-14.76,0-26.77-12-26.77-26.76,0-14.76,12.01-26.76,26.77-26.76h0Zm57.78,45.94c.91,0,1.61,.28,2.08,.84,.48,.56,.72,1.33,.72,2.32v.72h-4.74v.12c0,.77,.19,1.37,.56,1.78,.37,.42,.88,.62,1.52,.62,.46,0,.87-.07,1.23-.21,.35-.14,.65-.3,.9-.48l.39,.67c-.28,.2-.62,.38-1.03,.54-.41,.16-.91,.25-1.49,.25-.93,0-1.65-.28-2.16-.83-.52-.56-.77-1.34-.77-2.35v-.86c0-.99,.25-1.76,.75-2.31,.5-.55,1.19-.83,2.07-.83h0Zm36.64,0c.78,0,1.39,.19,1.84,.58s.66,.93,.66,1.64v4.86h-.85v-.85h-.01c-.07,.11-.17,.23-.3,.34-.13,.12-.29,.22-.47,.32-.4,.2-.86,.3-1.41,.3-.66,0-1.2-.18-1.61-.53-.41-.35-.62-.84-.62-1.46v-.29c0-.56,.21-1.03,.62-1.38,.41-.35,1.02-.53,1.83-.53h1.96v-.64c0-.51-.14-.9-.42-1.17-.28-.27-.69-.4-1.23-.4-.38,0-.74,.07-1.08,.2-.34,.13-.67,.3-.97,.51l-.42-.67c.33-.22,.69-.42,1.09-.58,.4-.16,.87-.25,1.4-.25h0Zm28.27,0c.91,0,1.61,.28,2.08,.84,.47,.56,.71,1.33,.71,2.32v.72h-4.74v.12c0,.77,.18,1.37,.55,1.78,.37,.42,.88,.62,1.52,.62,.46,0,.87-.07,1.22-.21,.35-.14,.65-.3,.9-.48l.39,.67c-.28,.2-.62,.38-1.03,.54-.41,.16-.91,.25-1.49,.25-.93,0-1.65-.28-2.17-.83-.52-.56-.77-1.34-.77-2.35v-.86c0-.99,.25-1.76,.75-2.31,.5-.55,1.19-.83,2.07-.83h0Zm-45.38,0c.91,0,1.6,.28,2.08,.84,.48,.56,.72,1.33,.72,2.32v.72h-4.74v.12c0,.77,.19,1.37,.56,1.78,.37,.42,.88,.62,1.52,.62,.46,0,.87-.07,1.22-.21,.35-.14,.65-.3,.9-.48l.39,.67c-.28,.2-.62,.38-1.03,.54-.41,.16-.91,.25-1.49,.25-.93,0-1.65-.28-2.17-.83-.52-.56-.77-1.34-.77-2.35v-.86c0-.99,.25-1.76,.75-2.31,.5-.55,1.19-.83,2.07-.83h0Zm58.82-1.66v1.79h1.92v.75h-1.92v4.23c0,.47,.07,.8,.23,.99,.15,.19,.4,.29,.75,.29s.67-.04,.98-.13l.13,.72c-.14,.05-.32,.09-.55,.13-.23,.03-.43,.04-.63,.04-.3,0-.56-.03-.79-.1-.23-.07-.42-.18-.56-.33-.15-.16-.26-.36-.33-.61-.07-.25-.11-.57-.11-.95v-4.27h-1.19v-.75h1.19v-1.79h.88Zm-47.72,0v1.79h1.92v.75h-1.92v4.23c0,.47,.07,.8,.23,.99,.15,.19,.4,.29,.75,.29s.67-.04,.98-.13l.13,.72c-.14,.05-.32,.09-.55,.13-.23,.03-.43,.04-.63,.04-.3,0-.56-.03-.79-.1-.23-.07-.41-.18-.56-.33-.15-.16-.26-.36-.33-.61-.07-.25-.11-.57-.11-.95v-4.27h-1.19v-.75h1.19v-1.79h.88Zm-17.19,0v1.79h1.92v.75h-1.92v4.23c0,.47,.08,.8,.23,.99,.15,.19,.4,.29,.75,.29s.67-.04,.98-.13l.13,.72c-.14,.05-.32,.09-.55,.13-.23,.03-.44,.04-.63,.04-.3,0-.56-.03-.79-.1-.23-.07-.42-.18-.56-.33-.15-.16-.26-.36-.33-.61-.07-.25-.11-.57-.11-.95v-4.27h-1.19v-.75h1.19v-1.79h.88Zm-5.93,1.66c.8,0,1.41,.22,1.85,.65,.43,.44,.65,1.02,.65,1.75v4.68h-.88v-4.46c0-.25-.03-.48-.08-.7-.05-.22-.14-.41-.28-.58-.13-.17-.31-.3-.54-.39-.23-.09-.51-.14-.86-.14-.29,0-.56,.05-.8,.16-.25,.11-.45,.25-.63,.42-.17,.17-.31,.36-.41,.57-.1,.21-.15,.41-.15,.62v4.51h-.88v-6.95h.86v.97c.08-.13,.18-.26,.31-.39,.13-.13,.28-.25,.46-.35,.18-.1,.38-.19,.61-.25,.22-.07,.47-.1,.75-.1h0Zm50.6,0c.79,0,1.37,.22,1.73,.64,.36,.43,.55,1.01,.55,1.76v4.68h-.88v-4.45c0-.28-.02-.53-.07-.76-.05-.22-.13-.41-.24-.57-.12-.16-.28-.28-.48-.37-.2-.09-.46-.13-.76-.13-.29,0-.53,.05-.75,.15-.22,.1-.4,.24-.55,.4-.15,.16-.27,.35-.35,.55-.08,.21-.13,.41-.14,.61v4.56h-.88v-4.45c0-.28-.02-.53-.07-.76-.05-.22-.13-.41-.25-.57-.11-.16-.27-.28-.48-.37-.2-.09-.46-.13-.76-.13-.29,0-.54,.05-.76,.16-.22,.11-.41,.25-.56,.42-.15,.17-.26,.36-.34,.57-.08,.21-.12,.41-.12,.62v4.51h-.88v-6.95h.86v.97c.08-.13,.17-.27,.29-.4,.12-.13,.26-.25,.42-.35,.17-.1,.35-.19,.55-.24,.2-.06,.43-.09,.69-.09,.56,0,1.01,.11,1.35,.33,.34,.22,.59,.53,.75,.93,.08-.14,.18-.3,.3-.44,.13-.15,.27-.29,.45-.4,.18-.12,.38-.22,.6-.3,.23-.08,.48-.12,.75-.12h0Zm-16.11,.13v6.95h-.88v-6.95h.88Zm30.42-.13c.8,0,1.42,.22,1.85,.65,.43,.44,.65,1.02,.65,1.75v4.68h-.88v-4.46c0-.25-.03-.48-.08-.7-.05-.22-.14-.41-.28-.58-.13-.17-.31-.3-.54-.39-.23-.09-.51-.14-.86-.14-.29,0-.56,.05-.8,.16-.24,.11-.45,.25-.63,.42-.17,.17-.31,.36-.4,.57-.1,.21-.15,.41-.15,.62v4.51h-.88v-6.95h.86v.97c.08-.13,.18-.26,.31-.39,.13-.13,.28-.25,.46-.35,.18-.1,.38-.19,.6-.25,.22-.07,.47-.1,.75-.1h0Zm-25.33,0c.8,0,1.42,.22,1.85,.65,.43,.44,.65,1.02,.65,1.75v4.68h-.88v-4.46c0-.25-.02-.48-.08-.7-.05-.22-.14-.41-.28-.58-.13-.17-.31-.3-.54-.39-.23-.09-.51-.14-.86-.14-.29,0-.56,.05-.81,.16-.24,.11-.45,.25-.62,.42-.17,.17-.31,.36-.4,.57-.1,.21-.15,.41-.15,.62v4.51h-.88v-6.95h.86v.97c.08-.13,.18-.26,.31-.39,.13-.13,.28-.25,.46-.35,.18-.1,.38-.19,.61-.25,.22-.07,.47-.1,.75-.1h0Zm-20.18,0c.2,0,.38,.01,.54,.03,.16,.02,.31,.06,.46,.11l-.27,.89c-.24-.09-.52-.14-.84-.14-.28,0-.54,.06-.77,.17-.23,.11-.43,.27-.59,.47-.17,.19-.29,.43-.38,.71-.09,.27-.13,.58-.13,.9v3.94h-.88v-6.95h.87v1.23c.08-.16,.17-.33,.29-.49,.11-.16,.26-.31,.42-.44,.17-.13,.36-.23,.57-.31,.21-.08,.45-.12,.72-.12h0Zm11.37,3.74h-1.95c-.56,0-.96,.11-1.21,.34-.25,.22-.37,.52-.37,.88v.21c0,.22,.04,.42,.13,.58,.09,.16,.2,.29,.34,.39,.14,.1,.3,.18,.48,.23,.18,.04,.36,.07,.54,.07,.27,0,.52-.03,.75-.1,.22-.07,.44-.17,.64-.3,.19-.12,.35-.27,.47-.44,.13-.18,.19-.4,.19-.67v-1.17h0ZM118.99,38.85c-13.87,0-25.15,11.28-25.15,25.15s11.28,25.15,25.15,25.15c8.47,0,15.97-4.21,20.53-10.65-1.06-.19-1.96-.7-2.71-1.53-.96-1.08-1.45-2.41-1.45-4v-4.95c0-1.61,.48-2.92,1.43-3.93s2.19-1.52,3.72-1.52h3.58c-.74-13.21-11.72-23.73-25.11-23.73Zm122.69,45.1c-.62,0-1.1,.21-1.44,.61-.34,.41-.51,.96-.51,1.64v.12h3.87v-.12c0-.73-.17-1.29-.5-1.68-.34-.39-.81-.58-1.42-.58h0Zm-45.38,0c-.62,0-1.1,.21-1.44,.61-.34,.41-.51,.96-.51,1.64v.12h3.87v-.12c0-.73-.17-1.29-.5-1.68-.34-.39-.81-.58-1.42-.58h0Zm-19.53,0c-.62,0-1.1,.21-1.44,.61-.34,.41-.51,.96-.51,1.64v.12h3.87v-.12c0-.73-.17-1.29-.5-1.68-.34-.39-.81-.58-1.42-.58h0Zm42.04-2.95v.98h-.96v-.98h.96Zm-105.41-18.51c1.5,0,2.73,.54,3.69,1.62,.96,1.08,1.44,2.42,1.44,4v10.49h-2.86v-8.55h-8.96c-.78,0-1.38,.27-1.78,.81-.4,.54-.6,1.24-.6,2.09,0,.71,.23,1.32,.7,1.84,.47,.52,1.03,.78,1.69,.78h7.15v3.02h-7.15c-1.63,0-2.91-.58-3.85-1.72-.93-1.15-1.4-2.58-1.4-4.3,0-1.57,.5-2.89,1.51-3.95,1.01-1.06,2.25-1.59,3.73-1.59h8.77c-.51-1.02-1.2-1.53-2.06-1.53h-9.6v-3.02h9.58Zm22.21,0v3.02h-9.48c-.66,0-1.19,.28-1.62,.84-.42,.56-.63,1.21-.63,1.92v10.33h-2.86v-10.49c0-1.59,.48-2.92,1.44-4,.96-1.08,2.18-1.62,3.66-1.62h9.48Zm21.77,.23v10.33c0,.7,.23,1.29,.68,1.78,.46,.49,1.02,.73,1.7,.73h6.45c.68,0,1.24-.24,1.7-.73s.68-1.08,.68-1.78v-10.33h2.86v10.11c0,1.55-.48,2.88-1.43,4.01-1.02,1.16-2.29,1.75-3.81,1.75h-6.45c-1.51,0-2.75-.52-3.75-1.57-1-1.05-1.49-2.37-1.49-3.96v-10.33h2.86Zm28.76,0c1.51,0,2.76,.56,3.75,1.69,.99,1.12,1.49,2.48,1.49,4.07v10.11h-2.86v-10.33c0-.7-.23-1.29-.68-1.78-.46-.49-1.02-.73-1.7-.73h-6.45c-.68,0-1.24,.24-1.7,.73-.46,.49-.68,1.08-.68,1.78v10.33h-2.86v-10.33c0-1.59,.5-2.91,1.49-3.96,1-1.05,2.25-1.57,3.75-1.57h6.45Zm24.38-5.15v15.26c0,1.55-.48,2.88-1.43,4.01-1.02,1.16-2.29,1.75-3.81,1.75h-6.45c-1.51,0-2.73-.49-3.67-1.48s-1.41-2.26-1.41-3.83v-4.93c0-1.63,.47-2.98,1.41-4.05,.94-1.07,2.19-1.61,3.73-1.61l7.75,.03-.03,3.02h-7.75c-.68,0-1.23,.27-1.64,.82-.42,.55-.62,1.19-.62,1.93v4.5c0,.74,.19,1.35,.59,1.84,.39,.49,.93,.73,1.61,.73h6.47c.68,0,1.25-.24,1.7-.73,.46-.49,.68-1.08,.68-1.78v-15.48h2.86Zm16.31,5.15v10.33c0,.7,.23,1.29,.68,1.78,.46,.49,1.02,.73,1.7,.73h6.45c.68,0,1.24-.24,1.7-.73,.46-.49,.68-1.08,.68-1.78v-10.33h2.86v10.11c0,1.55-.48,2.88-1.43,4.01-1.01,1.16-2.29,1.75-3.81,1.75h-6.45c-1.51,0-2.76-.52-3.75-1.57-1-1.05-1.49-2.37-1.49-3.96v-10.33h2.86Zm30.32-.22v3.02h-10.08c-.96,0-1.43,.54-1.43,1.62,0,1.14,.41,1.72,1.24,1.72h6.87c1.19,0,2.15,.46,2.89,1.38,.74,.92,1.11,2.02,1.11,3.29,0,1.34-.33,2.48-.98,3.43-.72,1.06-1.73,1.59-3.02,1.59h-10.52v-3.02h10.08c.95,0,1.43-.64,1.43-1.94,0-1.14-.42-1.72-1.27-1.72h-6.83c-1.19,0-2.16-.48-2.93-1.43-.72-.89-1.08-1.97-1.08-3.24s.37-2.37,1.11-3.31c.74-.93,1.71-1.4,2.89-1.4h10.52Zm-109.99,3.12h-6.68c-.68,0-1.23,.28-1.65,.84-.42,.56-.62,1.2-.62,1.94v4.45c0,.74,.21,1.38,.62,1.93,.42,.55,.96,.82,1.65,.82h6.68c.68,0,1.23-.27,1.65-.82,.42-.55,.62-1.19,.62-1.93v-4.45c0-.74-.21-1.38-.62-1.94-.42-.56-.96-.84-1.65-.84Z"/>
    </g>
  </g>
</svg>